<svg xmlns="http://www.w3.org/2000/svg" width="960" height="430" viewBox="0 0 960 430">
<text x="84" y="24" font-size="16" font-family="Arial, sans-serif">vehicle_event_nonstationary target selection</text>
<rect x="84" y="46" width="850" height="318" fill="white" stroke="#777" />
<line x1="84" y1="364" x2="934" y2="364" stroke="#333" stroke-width="1" />
<line x1="84" y1="46" x2="84" y2="364" stroke="#333" stroke-width="1" />
<line x1="84.00" y1="46" x2="84.00" y2="364" stroke="#e6e6e6" stroke-width="1" />
<line x1="84.00" y1="364" x2="84.00" y2="369" stroke="#333" stroke-width="1" />
<text x="84.00" y="386" text-anchor="middle" font-size="11" font-family="Arial, sans-serif" fill="#333">0.000</text>
<line x1="254.00" y1="46" x2="254.00" y2="364" stroke="#e6e6e6" stroke-width="1" />
<line x1="254.00" y1="364" x2="254.00" y2="369" stroke="#333" stroke-width="1" />
<text x="254.00" y="386" text-anchor="middle" font-size="11" font-family="Arial, sans-serif" fill="#333">0.998</text>
<line x1="424.00" y1="46" x2="424.00" y2="364" stroke="#e6e6e6" stroke-width="1" />
<line x1="424.00" y1="364" x2="424.00" y2="369" stroke="#333" stroke-width="1" />
<text x="424.00" y="386" text-anchor="middle" font-size="11" font-family="Arial, sans-serif" fill="#333">2.00</text>
<line x1="594.00" y1="46" x2="594.00" y2="364" stroke="#e6e6e6" stroke-width="1" />
<line x1="594.00" y1="364" x2="594.00" y2="369" stroke="#333" stroke-width="1" />
<text x="594.00" y="386" text-anchor="middle" font-size="11" font-family="Arial, sans-serif" fill="#333">2.99</text>
<line x1="764.00" y1="46" x2="764.00" y2="364" stroke="#e6e6e6" stroke-width="1" />
<line x1="764.00" y1="364" x2="764.00" y2="369" stroke="#333" stroke-width="1" />
<text x="764.00" y="386" text-anchor="middle" font-size="11" font-family="Arial, sans-serif" fill="#333">3.99</text>
<line x1="934.00" y1="46" x2="934.00" y2="364" stroke="#e6e6e6" stroke-width="1" />
<line x1="934.00" y1="364" x2="934.00" y2="369" stroke="#333" stroke-width="1" />
<text x="934.00" y="386" text-anchor="middle" font-size="11" font-family="Arial, sans-serif" fill="#333">4.99</text>
<line x1="84" y1="364.00" x2="934" y2="364.00" stroke="#e6e6e6" stroke-width="1" />
<line x1="79" y1="364.00" x2="84" y2="364.00" stroke="#333" stroke-width="1" />
<text x="75" y="368.00" text-anchor="end" font-size="11" font-family="Arial, sans-serif" fill="#333">-0.050</text>
<line x1="84" y1="300.40" x2="934" y2="300.40" stroke="#e6e6e6" stroke-width="1" />
<line x1="79" y1="300.40" x2="84" y2="300.40" stroke="#333" stroke-width="1" />
<text x="75" y="304.40" text-anchor="end" font-size="11" font-family="Arial, sans-serif" fill="#333">0.170</text>
<line x1="84" y1="236.80" x2="934" y2="236.80" stroke="#e6e6e6" stroke-width="1" />
<line x1="79" y1="236.80" x2="84" y2="236.80" stroke="#333" stroke-width="1" />
<text x="75" y="240.80" text-anchor="end" font-size="11" font-family="Arial, sans-serif" fill="#333">0.390</text>
<line x1="84" y1="173.20" x2="934" y2="173.20" stroke="#e6e6e6" stroke-width="1" />
<line x1="79" y1="173.20" x2="84" y2="173.20" stroke="#333" stroke-width="1" />
<text x="75" y="177.20" text-anchor="end" font-size="11" font-family="Arial, sans-serif" fill="#333">0.610</text>
<line x1="84" y1="109.60" x2="934" y2="109.60" stroke="#e6e6e6" stroke-width="1" />
<line x1="79" y1="109.60" x2="84" y2="109.60" stroke="#333" stroke-width="1" />
<text x="75" y="113.60" text-anchor="end" font-size="11" font-family="Arial, sans-serif" fill="#333">0.830</text>
<line x1="84" y1="46.00" x2="934" y2="46.00" stroke="#e6e6e6" stroke-width="1" />
<line x1="79" y1="46.00" x2="84" y2="46.00" stroke="#333" stroke-width="1" />
<text x="75" y="50.00" text-anchor="end" font-size="11" font-family="Arial, sans-serif" fill="#333">1.05</text>
<text x="509.00" y="412" text-anchor="middle" font-size="13" font-family="Arial, sans-serif">Time (s)</text>
<text transform="translate(22 205.00) rotate(-90)" text-anchor="middle" font-size="13" font-family="Arial, sans-serif">Presence / selected gate</text>
<polyline points="84.00,60.45 85.70,60.45 87.41,60.45 89.11,60.45 90.81,60.45 92.52,60.45 94.22,60.45 95.92,60.45 97.63,60.45 99.33,60.45 101.03,60.45 102.74,60.45 104.44,60.45 106.14,60.45 107.85,60.45 109.55,60.45 111.25,60.45 112.96,60.45 114.66,60.45 116.36,60.45 118.07,60.45 119.77,60.45 121.47,60.45 123.18,60.45 124.88,60.45 126.59,60.45 128.29,60.45 129.99,60.45 131.70,60.45 133.40,60.45 135.10,60.45 136.81,60.45 138.51,60.45 140.21,60.45 141.92,60.45 143.62,60.45 145.32,60.45 147.03,60.45 148.73,60.45 150.43,60.45 152.14,60.45 153.84,60.45 155.54,60.45 157.25,60.45 158.95,60.45 160.65,60.45 162.36,60.45 164.06,60.45 165.76,60.45 167.47,60.45 169.17,60.45 170.87,60.45 172.58,60.45 174.28,60.45 175.98,60.45 177.69,60.45 179.39,60.45 181.09,60.45 182.80,60.45 184.50,60.45 186.20,60.45 187.91,60.45 189.61,60.45 191.31,60.45 193.02,60.45 194.72,60.45 196.42,60.45 198.13,60.45 199.83,60.45 201.54,60.45 203.24,60.45 204.94,60.45 206.65,60.45 208.35,60.45 210.05,60.45 211.76,60.45 213.46,60.45 215.16,60.45 216.87,60.45 218.57,60.45 220.27,60.45 221.98,60.45 223.68,60.45 225.38,60.45 227.09,60.45 228.79,60.45 230.49,60.45 232.20,60.45 233.90,60.45 235.60,60.45 237.31,60.45 239.01,60.45 240.71,60.45 242.42,60.45 244.12,60.45 245.82,60.45 247.53,60.45 249.23,60.45 250.93,60.45 252.64,60.45 254.34,60.45 256.04,60.45 257.75,60.45 259.45,60.45 261.15,60.45 262.86,60.45 264.56,60.45 266.26,60.45 267.97,60.45 269.67,60.45 271.37,60.45 273.08,60.45 274.78,60.45 276.48,60.45 278.19,60.45 279.89,60.45 281.60,60.45 283.30,60.45 285.00,60.45 286.71,60.45 288.41,60.45 290.11,60.45 291.82,60.45 293.52,60.45 295.22,60.45 296.93,60.45 298.63,60.45 300.33,60.45 302.04,60.45 303.74,60.45 305.44,60.45 307.15,60.45 308.85,60.45 310.55,60.45 312.26,60.45 313.96,60.45 315.66,60.45 317.37,60.45 319.07,60.45 320.77,60.45 322.48,60.45 324.18,60.45 325.88,60.45 327.59,60.45 329.29,60.45 330.99,60.45 332.70,60.45 334.40,60.45 336.10,60.45 337.81,60.45 339.51,60.45 341.21,60.45 342.92,60.45 344.62,60.45 346.32,60.45 348.03,60.45 349.73,60.45 351.43,60.45 353.14,60.45 354.84,60.45 356.55,60.45 358.25,60.45 359.95,60.45 361.66,60.45 363.36,60.45 365.06,60.45 366.77,60.45 368.47,60.45 370.17,60.45 371.88,60.45 373.58,60.45 375.28,60.45 376.99,60.45 378.69,60.45 380.39,60.45 382.10,60.45 383.80,60.45 385.50,60.45 387.21,60.45 388.91,60.45 390.61,60.45 392.32,60.45 394.02,60.45 395.72,60.45 397.43,60.45 399.13,60.45 400.83,60.45 402.54,60.45 404.24,60.45 405.94,60.45 407.65,60.45 409.35,60.45 411.05,60.45 412.76,60.45 414.46,60.45 416.16,60.45 417.87,60.45 419.57,60.45 421.27,60.45 422.98,60.45 424.68,60.45 426.38,60.45 428.09,60.45 429.79,60.45 431.49,60.45 433.20,60.45 434.90,60.45 436.61,60.45 438.31,60.45 440.01,60.45 441.72,60.45 443.42,60.45 445.12,60.45 446.83,60.45 448.53,60.45 450.23,60.45 451.94,60.45 453.64,60.45 455.34,60.45 457.05,60.45 458.75,60.45 460.45,60.45 462.16,60.45 463.86,60.45 465.56,60.45 467.27,60.45 468.97,60.45 470.67,60.45 472.38,60.45 474.08,60.45 475.78,60.45 477.49,60.45 479.19,60.45 480.89,60.45 482.60,60.45 484.30,60.45 486.00,60.45 487.71,60.45 489.41,60.45 491.11,60.45 492.82,60.45 494.52,60.45 496.22,60.45 497.93,60.45 499.63,60.45 501.33,60.45 503.04,60.45 504.74,60.45 506.44,60.45 508.15,60.45 509.85,60.45 511.56,60.45 513.26,60.45 514.96,60.45 516.67,60.45 518.37,60.45 520.07,60.45 521.78,60.45 523.48,60.45 525.18,60.45 526.89,60.45 528.59,60.45 530.29,60.45 532.00,60.45 533.70,60.45 535.40,60.45 537.11,60.45 538.81,60.45 540.51,60.45 542.22,60.45 543.92,60.45 545.62,60.45 547.33,60.45 549.03,60.45 550.73,60.45 552.44,60.45 554.14,60.45 555.84,60.45 557.55,60.45 559.25,60.45 560.95,60.45 562.66,60.45 564.36,60.45 566.06,60.45 567.77,60.45 569.47,60.45 571.17,60.45 572.88,60.45 574.58,60.45 576.28,60.45 577.99,60.45 579.69,60.45 581.39,60.45 583.10,60.45 584.80,60.45 586.51,60.45 588.21,60.45 589.91,60.45 591.62,60.45 593.32,60.45 595.02,60.45 596.73,60.45 598.43,60.45 600.13,60.45 601.84,60.45 603.54,60.45 605.24,60.45 606.95,60.45 608.65,60.45 610.35,60.45 612.06,60.45 613.76,60.45 615.46,60.45 617.17,60.45 618.87,60.45 620.57,60.45 622.28,60.45 623.98,60.45 625.68,60.45 627.39,60.45 629.09,60.45 630.79,60.45 632.50,60.45 634.20,60.45 635.90,60.45 637.61,60.45 639.31,60.45 641.01,60.45 642.72,60.45 644.42,60.45 646.12,60.45 647.83,60.45 649.53,60.45 651.23,60.45 652.94,60.45 654.64,60.45 656.34,60.45 658.05,60.45 659.75,60.45 661.45,60.45 663.16,60.45 664.86,60.45 666.57,60.45 668.27,60.45 669.97,60.45 671.68,60.45 673.38,60.45 675.08,60.45 676.79,60.45 678.49,60.45 680.19,60.45 681.90,60.45 683.60,60.45 685.30,60.45 687.01,60.45 688.71,60.45 690.41,60.45 692.12,60.45 693.82,60.45 695.52,60.45 697.23,60.45 698.93,60.45 700.63,60.45 702.34,60.45 704.04,60.45 705.74,60.45 707.45,60.45 709.15,60.45 710.85,60.45 712.56,60.45 714.26,60.45 715.96,60.45 717.67,60.45 719.37,60.45 721.07,60.45 722.78,60.45 724.48,60.45 726.18,60.45 727.89,60.45 729.59,60.45 731.29,60.45 733.00,60.45 734.70,60.45 736.40,60.45 738.11,60.45 739.81,60.45 741.52,60.45 743.22,60.45 744.92,60.45 746.63,60.45 748.33,60.45 750.03,60.45 751.74,60.45 753.44,60.45 755.14,60.45 756.85,60.45 758.55,60.45 760.25,60.45 761.96,60.45 763.66,60.45 765.36,60.45 767.07,60.45 768.77,60.45 770.47,60.45 772.18,60.45 773.88,60.45 775.58,60.45 777.29,60.45 778.99,60.45 780.69,60.45 782.40,60.45 784.10,60.45 785.80,60.45 787.51,60.45 789.21,60.45 790.91,60.45 792.62,60.45 794.32,60.45 796.02,60.45 797.73,60.45 799.43,60.45 801.13,60.45 802.84,60.45 804.54,60.45 806.24,60.45 807.95,60.45 809.65,60.45 811.35,60.45 813.06,60.45 814.76,60.45 816.46,60.45 818.17,60.45 819.87,60.45 821.58,60.45 823.28,60.45 824.98,60.45 826.69,60.45 828.39,60.45 830.09,60.45 831.80,60.45 833.50,60.45 835.20,60.45 836.91,60.45 838.61,60.45 840.31,60.45 842.02,60.45 843.72,60.45 845.42,60.45 847.13,60.45 848.83,60.45 850.53,60.45 852.24,60.45 853.94,60.45 855.64,60.45 857.35,60.45 859.05,60.45 860.75,60.45 862.46,60.45 864.16,60.45 865.86,60.45 867.57,60.45 869.27,60.45 870.97,60.45 872.68,60.45 874.38,60.45 876.08,60.45 877.79,60.45 879.49,60.45 881.19,60.45 882.90,60.45 884.60,60.45 886.30,60.45 888.01,60.45 889.71,60.45 891.41,60.45 893.12,60.45 894.82,60.45 896.53,60.45 898.23,60.45 899.93,60.45 901.64,60.45 903.34,60.45 905.04,60.45 906.75,60.45 908.45,60.45 910.15,60.45 911.86,60.45 913.56,60.45 915.26,60.45 916.97,60.45 918.67,60.45 920.37,60.45 922.08,60.45 923.78,60.45 925.48,60.45 927.19,60.45 928.89,60.45 930.59,60.45 932.30,60.45 934.00,60.45" fill="none" stroke="#0066cc" stroke-width="1.5" />
<polyline points="84.00,60.45 85.70,60.45 87.41,60.45 89.11,60.45 90.81,60.45 92.52,60.45 94.22,60.45 95.92,60.45 97.63,60.45 99.33,60.45 101.03,60.45 102.74,60.45 104.44,60.45 106.14,60.45 107.85,60.45 109.55,60.45 111.25,60.45 112.96,60.45 114.66,60.45 116.36,60.45 118.07,60.45 119.77,60.45 121.47,60.45 123.18,60.45 124.88,60.45 126.59,60.45 128.29,60.45 129.99,60.45 131.70,60.45 133.40,60.45 135.10,60.45 136.81,60.45 138.51,60.45 140.21,60.45 141.92,60.45 143.62,60.45 145.32,60.45 147.03,60.45 148.73,60.45 150.43,60.45 152.14,60.45 153.84,60.45 155.54,60.45 157.25,60.45 158.95,60.45 160.65,60.45 162.36,60.45 164.06,60.45 165.76,60.45 167.47,60.45 169.17,60.45 170.87,60.45 172.58,60.45 174.28,60.45 175.98,60.45 177.69,60.45 179.39,60.45 181.09,60.45 182.80,60.45 184.50,60.45 186.20,60.45 187.91,60.45 189.61,60.45 191.31,60.45 193.02,60.45 194.72,60.45 196.42,60.45 198.13,60.45 199.83,60.45 201.54,60.45 203.24,60.45 204.94,60.45 206.65,60.45 208.35,60.45 210.05,60.45 211.76,60.45 213.46,60.45 215.16,60.45 216.87,60.45 218.57,60.45 220.27,60.45 221.98,60.45 223.68,60.45 225.38,60.45 227.09,60.45 228.79,60.45 230.49,60.45 232.20,60.45 233.90,60.45 235.60,60.45 237.31,60.45 239.01,60.45 240.71,60.45 242.42,60.45 244.12,60.45 245.82,60.45 247.53,60.45 249.23,60.45 250.93,60.45 252.64,60.45 254.34,60.45 256.04,60.45 257.75,60.45 259.45,60.45 261.15,60.45 262.86,60.45 264.56,60.45 266.26,60.45 267.97,60.45 269.67,60.45 271.37,60.45 273.08,60.45 274.78,60.45 276.48,60.45 278.19,60.45 279.89,60.45 281.60,60.45 283.30,60.45 285.00,60.45 286.71,60.45 288.41,60.45 290.11,60.45 291.82,60.45 293.52,60.45 295.22,60.45 296.93,60.45 298.63,60.45 300.33,60.45 302.04,60.45 303.74,60.45 305.44,60.45 307.15,60.45 308.85,60.45 310.55,60.45 312.26,60.45 313.96,60.45 315.66,60.45 317.37,60.45 319.07,60.45 320.77,60.45 322.48,60.45 324.18,60.45 325.88,60.45 327.59,60.45 329.29,60.45 330.99,60.45 332.70,60.45 334.40,60.45 336.10,60.45 337.81,60.45 339.51,60.45 341.21,60.45 342.92,60.45 344.62,60.45 346.32,60.45 348.03,60.45 349.73,60.45 351.43,60.45 353.14,60.45 354.84,60.45 356.55,60.45 358.25,60.45 359.95,60.45 361.66,60.45 363.36,60.45 365.06,60.45 366.77,60.45 368.47,60.45 370.17,60.45 371.88,60.45 373.58,60.45 375.28,60.45 376.99,60.45 378.69,60.45 380.39,60.45 382.10,60.45 383.80,60.45 385.50,60.45 387.21,60.45 388.91,60.45 390.61,60.45 392.32,60.45 394.02,60.45 395.72,60.45 397.43,60.45 399.13,60.45 400.83,60.45 402.54,60.45 404.24,60.45 405.94,60.45 407.65,60.45 409.35,60.45 411.05,60.45 412.76,60.45 414.46,60.45 416.16,60.45 417.87,60.45 419.57,60.45 421.27,60.45 422.98,60.45 424.68,60.45 426.38,60.45 428.09,60.45 429.79,60.45 431.49,60.45 433.20,60.45 434.90,60.45 436.61,60.45 438.31,60.45 440.01,60.45 441.72,60.45 443.42,60.45 445.12,60.45 446.83,60.45 448.53,60.45 450.23,60.45 451.94,60.45 453.64,60.45 455.34,60.45 457.05,60.45 458.75,60.45 460.45,60.45 462.16,60.45 463.86,60.45 465.56,60.45 467.27,60.45 468.97,60.45 470.67,60.45 472.38,60.45 474.08,60.45 475.78,60.45 477.49,60.45 479.19,60.45 480.89,60.45 482.60,60.45 484.30,60.45 486.00,60.45 487.71,60.45 489.41,60.45 491.11,60.45 492.82,60.45 494.52,60.45 496.22,60.45 497.93,60.45 499.63,60.45 501.33,60.45 503.04,60.45 504.74,60.45 506.44,60.45 508.15,60.45 509.85,60.45 511.56,60.45 513.26,60.45 514.96,60.45 516.67,60.45 518.37,60.45 520.07,60.45 521.78,60.45 523.48,60.45 525.18,60.45 526.89,60.45 528.59,60.45 530.29,60.45 532.00,60.45 533.70,60.45 535.40,60.45 537.11,60.45 538.81,60.45 540.51,60.45 542.22,60.45 543.92,60.45 545.62,60.45 547.33,60.45 549.03,60.45 550.73,60.45 552.44,60.45 554.14,60.45 555.84,60.45 557.55,60.45 559.25,60.45 560.95,60.45 562.66,60.45 564.36,60.45 566.06,60.45 567.77,60.45 569.47,60.45 571.17,60.45 572.88,60.45 574.58,60.45 576.28,60.45 577.99,60.45 579.69,60.45 581.39,60.45 583.10,60.45 584.80,60.45 586.51,60.45 588.21,60.45 589.91,60.45 591.62,60.45 593.32,60.45 595.02,60.45 596.73,60.45 598.43,60.45 600.13,60.45 601.84,60.45 603.54,60.45 605.24,60.45 606.95,60.45 608.65,60.45 610.35,60.45 612.06,60.45 613.76,60.45 615.46,60.45 617.17,60.45 618.87,60.45 620.57,60.45 622.28,60.45 623.98,60.45 625.68,60.45 627.39,60.45 629.09,60.45 630.79,60.45 632.50,60.45 634.20,60.45 635.90,60.45 637.61,60.45 639.31,60.45 641.01,60.45 642.72,60.45 644.42,60.45 646.12,60.45 647.83,60.45 649.53,60.45 651.23,60.45 652.94,60.45 654.64,60.45 656.34,60.45 658.05,60.45 659.75,60.45 661.45,60.45 663.16,60.45 664.86,60.45 666.57,60.45 668.27,60.45 669.97,60.45 671.68,60.45 673.38,60.45 675.08,60.45 676.79,60.45 678.49,60.45 680.19,60.45 681.90,60.45 683.60,60.45 685.30,60.45 687.01,60.45 688.71,60.45 690.41,60.45 692.12,60.45 693.82,60.45 695.52,60.45 697.23,60.45 698.93,60.45 700.63,60.45 702.34,60.45 704.04,60.45 705.74,60.45 707.45,60.45 709.15,60.45 710.85,60.45 712.56,60.45 714.26,60.45 715.96,60.45 717.67,60.45 719.37,60.45 721.07,60.45 722.78,60.45 724.48,60.45 726.18,60.45 727.89,60.45 729.59,60.45 731.29,60.45 733.00,60.45 734.70,60.45 736.40,60.45 738.11,60.45 739.81,60.45 741.52,60.45 743.22,60.45 744.92,60.45 746.63,60.45 748.33,60.45 750.03,60.45 751.74,60.45 753.44,60.45 755.14,60.45 756.85,60.45 758.55,60.45 760.25,60.45 761.96,60.45 763.66,60.45 765.36,60.45 767.07,60.45 768.77,60.45 770.47,60.45 772.18,60.45 773.88,60.45 775.58,60.45 777.29,60.45 778.99,60.45 780.69,60.45 782.40,60.45 784.10,60.45 785.80,60.45 787.51,60.45 789.21,60.45 790.91,60.45 792.62,60.45 794.32,60.45 796.02,60.45 797.73,60.45 799.43,60.45 801.13,60.45 802.84,60.45 804.54,60.45 806.24,60.45 807.95,60.45 809.65,60.45 811.35,60.45 813.06,60.45 814.76,60.45 816.46,60.45 818.17,60.45 819.87,60.45 821.58,60.45 823.28,60.45 824.98,60.45 826.69,60.45 828.39,60.45 830.09,60.45 831.80,60.45 833.50,60.45 835.20,60.45 836.91,60.45 838.61,60.45 840.31,60.45 842.02,60.45 843.72,60.45 845.42,60.45 847.13,60.45 848.83,60.45 850.53,60.45 852.24,60.45 853.94,60.45 855.64,60.45 857.35,60.45 859.05,60.45 860.75,60.45 862.46,60.45 864.16,60.45 865.86,60.45 867.57,60.45 869.27,60.45 870.97,60.45 872.68,60.45 874.38,60.45 876.08,60.45 877.79,60.45 879.49,60.45 881.19,60.45 882.90,60.45 884.60,60.45 886.30,60.45 888.01,60.45 889.71,60.45 891.41,60.45 893.12,60.45 894.82,60.45 896.53,60.45 898.23,60.45 899.93,60.45 901.64,60.45 903.34,60.45 905.04,60.45 906.75,60.45 908.45,60.45 910.15,60.45 911.86,60.45 913.56,60.45 915.26,60.45 916.97,60.45 918.67,60.45 920.37,60.45 922.08,60.45 923.78,60.45 925.48,60.45 927.19,60.45 928.89,60.45 930.59,60.45 932.30,60.45 934.00,60.45" fill="none" stroke="#cc5500" stroke-width="1.5" />
<polyline points="84.00,60.45 85.70,60.45 87.41,60.45 89.11,60.45 90.81,60.45 92.52,60.45 94.22,60.45 95.92,60.45 97.63,60.45 99.33,60.45 101.03,60.45 102.74,60.45 104.44,60.45 106.14,60.45 107.85,60.45 109.55,60.45 111.25,60.45 112.96,60.45 114.66,60.45 116.36,60.45 118.07,60.45 119.77,60.45 121.47,60.45 123.18,60.45 124.88,60.45 126.59,60.45 128.29,60.45 129.99,60.45 131.70,60.45 133.40,60.45 135.10,60.45 136.81,60.45 138.51,60.45 140.21,60.45 141.92,60.45 143.62,60.45 145.32,60.45 147.03,60.45 148.73,60.45 150.43,60.45 152.14,60.45 153.84,60.45 155.54,60.45 157.25,60.45 158.95,60.45 160.65,60.45 162.36,60.45 164.06,60.45 165.76,60.45 167.47,60.45 169.17,60.45 170.87,60.45 172.58,60.45 174.28,60.45 175.98,60.45 177.69,60.45 179.39,60.45 181.09,60.45 182.80,60.45 184.50,60.45 186.20,60.45 187.91,60.45 189.61,60.45 191.31,60.45 193.02,60.45 194.72,60.45 196.42,60.45 198.13,60.45 199.83,60.45 201.54,60.45 203.24,60.45 204.94,60.45 206.65,60.45 208.35,60.45 210.05,60.45 211.76,60.45 213.46,60.45 215.16,60.45 216.87,60.45 218.57,60.45 220.27,60.45 221.98,60.45 223.68,60.45 225.38,60.45 227.09,60.45 228.79,60.45 230.49,60.45 232.20,60.45 233.90,60.45 235.60,60.45 237.31,60.45 239.01,60.45 240.71,60.45 242.42,60.45 244.12,60.45 245.82,60.45 247.53,60.45 249.23,60.45 250.93,60.45 252.64,60.45 254.34,60.45 256.04,60.45 257.75,60.45 259.45,60.45 261.15,60.45 262.86,60.45 264.56,60.45 266.26,60.45 267.97,60.45 269.67,60.45 271.37,60.45 273.08,60.45 274.78,60.45 276.48,60.45 278.19,60.45 279.89,60.45 281.60,60.45 283.30,60.45 285.00,60.45 286.71,60.45 288.41,60.45 290.11,60.45 291.82,60.45 293.52,60.45 295.22,60.45 296.93,60.45 298.63,60.45 300.33,60.45 302.04,60.45 303.74,60.45 305.44,60.45 307.15,60.45 308.85,60.45 310.55,60.45 312.26,60.45 313.96,60.45 315.66,60.45 317.37,60.45 319.07,60.45 320.77,60.45 322.48,60.45 324.18,60.45 325.88,60.45 327.59,60.45 329.29,60.45 330.99,60.45 332.70,60.45 334.40,60.45 336.10,60.45 337.81,60.45 339.51,60.45 341.21,60.45 342.92,60.45 344.62,60.45 346.32,60.45 348.03,60.45 349.73,60.45 351.43,60.45 353.14,60.45 354.84,60.45 356.55,60.45 358.25,60.45 359.95,60.45 361.66,60.45 363.36,60.45 365.06,60.45 366.77,60.45 368.47,60.45 370.17,60.45 371.88,60.45 373.58,60.45 375.28,60.45 376.99,60.45 378.69,60.45 380.39,60.45 382.10,60.45 383.80,60.45 385.50,60.45 387.21,60.45 388.91,60.45 390.61,60.45 392.32,60.45 394.02,60.45 395.72,60.45 397.43,60.45 399.13,60.45 400.83,60.45 402.54,60.45 404.24,60.45 405.94,60.45 407.65,60.45 409.35,60.45 411.05,60.45 412.76,60.45 414.46,60.45 416.16,60.45 417.87,60.45 419.57,60.45 421.27,60.45 422.98,60.45 424.68,60.45 426.38,60.45 428.09,60.45 429.79,60.45 431.49,60.45 433.20,60.45 434.90,60.45 436.61,60.45 438.31,60.45 440.01,60.45 441.72,60.45 443.42,60.45 445.12,60.45 446.83,60.45 448.53,60.45 450.23,60.45 451.94,60.45 453.64,60.45 455.34,60.45 457.05,60.45 458.75,60.45 460.45,60.45 462.16,60.45 463.86,60.45 465.56,60.45 467.27,60.45 468.97,60.45 470.67,60.45 472.38,60.45 474.08,60.45 475.78,60.45 477.49,60.45 479.19,60.45 480.89,60.45 482.60,60.45 484.30,60.45 486.00,60.45 487.71,60.45 489.41,60.45 491.11,60.45 492.82,60.45 494.52,60.45 496.22,60.45 497.93,60.45 499.63,60.45 501.33,60.45 503.04,60.45 504.74,60.45 506.44,60.45 508.15,60.45 509.85,60.45 511.56,60.45 513.26,60.45 514.96,60.45 516.67,60.45 518.37,60.45 520.07,60.45 521.78,60.45 523.48,60.45 525.18,60.45 526.89,60.45 528.59,60.45 530.29,60.45 532.00,60.45 533.70,60.45 535.40,60.45 537.11,60.45 538.81,60.45 540.51,60.45 542.22,60.45 543.92,60.45 545.62,60.45 547.33,60.45 549.03,60.45 550.73,60.45 552.44,60.45 554.14,60.45 555.84,60.45 557.55,60.45 559.25,60.45 560.95,60.45 562.66,60.45 564.36,60.45 566.06,60.45 567.77,60.45 569.47,60.45 571.17,60.45 572.88,60.45 574.58,60.45 576.28,60.45 577.99,60.45 579.69,60.45 581.39,60.45 583.10,60.45 584.80,60.45 586.51,60.45 588.21,60.45 589.91,60.45 591.62,60.45 593.32,60.45 595.02,60.45 596.73,60.45 598.43,60.45 600.13,60.45 601.84,60.45 603.54,60.45 605.24,60.45 606.95,60.45 608.65,60.45 610.35,60.45 612.06,60.45 613.76,60.45 615.46,60.45 617.17,60.45 618.87,60.45 620.57,60.45 622.28,60.45 623.98,60.45 625.68,60.45 627.39,60.45 629.09,60.45 630.79,60.45 632.50,60.45 634.20,60.45 635.90,60.45 637.61,60.45 639.31,60.45 641.01,60.45 642.72,60.45 644.42,60.45 646.12,60.45 647.83,60.45 649.53,60.45 651.23,60.45 652.94,60.45 654.64,60.45 656.34,60.45 658.05,60.45 659.75,60.45 661.45,60.45 663.16,60.45 664.86,60.45 666.57,60.45 668.27,60.45 669.97,60.45 671.68,60.45 673.38,60.45 675.08,60.45 676.79,60.45 678.49,60.45 680.19,60.45 681.90,60.45 683.60,60.45 685.30,60.45 687.01,60.45 688.71,60.45 690.41,60.45 692.12,60.45 693.82,60.45 695.52,60.45 697.23,60.45 698.93,60.45 700.63,60.45 702.34,60.45 704.04,60.45 705.74,60.45 707.45,60.45 709.15,60.45 710.85,60.45 712.56,60.45 714.26,60.45 715.96,60.45 717.67,60.45 719.37,60.45 721.07,60.45 722.78,60.45 724.48,60.45 726.18,60.45 727.89,60.45 729.59,60.45 731.29,60.45 733.00,60.45 734.70,60.45 736.40,60.45 738.11,60.45 739.81,60.45 741.52,60.45 743.22,60.45 744.92,60.45 746.63,60.45 748.33,60.45 750.03,60.45 751.74,60.45 753.44,60.45 755.14,60.45 756.85,60.45 758.55,60.45 760.25,60.45 761.96,60.45 763.66,60.45 765.36,60.45 767.07,60.45 768.77,60.45 770.47,60.45 772.18,60.45 773.88,60.45 775.58,60.45 777.29,60.45 778.99,60.45 780.69,60.45 782.40,60.45 784.10,60.45 785.80,60.45 787.51,60.45 789.21,60.45 790.91,60.45 792.62,60.45 794.32,60.45 796.02,60.45 797.73,60.45 799.43,60.45 801.13,60.45 802.84,60.45 804.54,60.45 806.24,60.45 807.95,60.45 809.65,60.45 811.35,60.45 813.06,60.45 814.76,60.45 816.46,60.45 818.17,60.45 819.87,60.45 821.58,60.45 823.28,60.45 824.98,60.45 826.69,60.45 828.39,60.45 830.09,60.45 831.80,60.45 833.50,60.45 835.20,60.45 836.91,60.45 838.61,60.45 840.31,60.45 842.02,60.45 843.72,60.45 845.42,60.45 847.13,60.45 848.83,60.45 850.53,60.45 852.24,60.45 853.94,60.45 855.64,60.45 857.35,60.45 859.05,60.45 860.75,60.45 862.46,60.45 864.16,60.45 865.86,60.45 867.57,60.45 869.27,60.45 870.97,60.45 872.68,60.45 874.38,60.45 876.08,60.45 877.79,60.45 879.49,60.45 881.19,60.45 882.90,60.45 884.60,60.45 886.30,60.45 888.01,60.45 889.71,60.45 891.41,60.45 893.12,60.45 894.82,60.45 896.53,60.45 898.23,60.45 899.93,60.45 901.64,60.45 903.34,60.45 905.04,60.45 906.75,60.45 908.45,60.45 910.15,60.45 911.86,60.45 913.56,60.45 915.26,60.45 916.97,60.45 918.67,60.45 920.37,60.45 922.08,60.45 923.78,60.45 925.48,60.45 927.19,60.45 928.89,60.45 930.59,60.45 932.30,60.45 934.00,60.45" fill="none" stroke="#228833" stroke-width="1.5" />
<polyline points="84.00,60.45 85.70,60.45 87.41,60.45 89.11,60.45 90.81,60.45 92.52,60.45 94.22,60.45 95.92,60.45 97.63,60.45 99.33,60.45 101.03,60.45 102.74,60.45 104.44,60.45 106.14,60.45 107.85,60.45 109.55,60.45 111.25,60.45 112.96,60.45 114.66,60.45 116.36,60.45 118.07,60.45 119.77,60.45 121.47,60.45 123.18,60.45 124.88,60.45 126.59,60.45 128.29,60.45 129.99,60.45 131.70,60.45 133.40,60.45 135.10,60.45 136.81,60.45 138.51,60.45 140.21,60.45 141.92,60.45 143.62,60.45 145.32,60.45 147.03,60.45 148.73,60.45 150.43,60.45 152.14,60.45 153.84,60.45 155.54,60.45 157.25,60.45 158.95,60.45 160.65,60.45 162.36,60.45 164.06,60.45 165.76,60.45 167.47,60.45 169.17,60.45 170.87,60.45 172.58,60.45 174.28,60.45 175.98,60.45 177.69,60.45 179.39,60.45 181.09,60.45 182.80,60.45 184.50,60.45 186.20,60.45 187.91,60.45 189.61,60.45 191.31,60.45 193.02,60.45 194.72,60.45 196.42,60.45 198.13,60.45 199.83,60.45 201.54,60.45 203.24,60.45 204.94,60.45 206.65,60.45 208.35,60.45 210.05,60.45 211.76,60.45 213.46,60.45 215.16,60.45 216.87,60.45 218.57,60.45 220.27,60.45 221.98,60.45 223.68,60.45 225.38,60.45 227.09,60.45 228.79,60.45 230.49,60.45 232.20,60.45 233.90,60.45 235.60,60.45 237.31,60.45 239.01,60.45 240.71,60.45 242.42,60.45 244.12,60.45 245.82,60.45 247.53,60.45 249.23,60.45 250.93,60.45 252.64,60.45 254.34,60.45 256.04,60.45 257.75,60.45 259.45,60.45 261.15,60.45 262.86,60.45 264.56,60.45 266.26,60.45 267.97,60.45 269.67,60.45 271.37,60.45 273.08,60.45 274.78,60.45 276.48,60.45 278.19,60.45 279.89,60.45 281.60,60.45 283.30,60.45 285.00,60.45 286.71,60.45 288.41,60.45 290.11,60.45 291.82,60.45 293.52,60.45 295.22,60.45 296.93,60.45 298.63,60.45 300.33,60.45 302.04,60.45 303.74,60.45 305.44,60.45 307.15,60.45 308.85,60.45 310.55,60.45 312.26,60.45 313.96,60.45 315.66,60.45 317.37,60.45 319.07,60.45 320.77,60.45 322.48,60.45 324.18,60.45 325.88,60.45 327.59,60.45 329.29,60.45 330.99,60.45 332.70,60.45 334.40,60.45 336.10,60.45 337.81,60.45 339.51,60.45 341.21,60.45 342.92,60.45 344.62,60.45 346.32,60.45 348.03,60.45 349.73,60.45 351.43,60.45 353.14,60.45 354.84,60.45 356.55,60.45 358.25,60.45 359.95,60.45 361.66,60.45 363.36,60.45 365.06,60.45 366.77,60.45 368.47,60.45 370.17,60.45 371.88,60.45 373.58,60.45 375.28,60.45 376.99,60.45 378.69,60.45 380.39,60.45 382.10,60.45 383.80,60.45 385.50,60.45 387.21,60.45 388.91,60.45 390.61,60.45 392.32,60.45 394.02,60.45 395.72,60.45 397.43,60.45 399.13,60.45 400.83,60.45 402.54,60.45 404.24,60.45 405.94,60.45 407.65,60.45 409.35,60.45 411.05,60.45 412.76,60.45 414.46,60.45 416.16,60.45 417.87,60.45 419.57,60.45 421.27,60.45 422.98,60.45 424.68,60.45 426.38,60.45 428.09,60.45 429.79,60.45 431.49,60.45 433.20,60.45 434.90,60.45 436.61,60.45 438.31,60.45 440.01,60.45 441.72,60.45 443.42,60.45 445.12,60.45 446.83,60.45 448.53,60.45 450.23,60.45 451.94,60.45 453.64,60.45 455.34,60.45 457.05,60.45 458.75,60.45 460.45,60.45 462.16,60.45 463.86,60.45 465.56,60.45 467.27,60.45 468.97,60.45 470.67,60.45 472.38,60.45 474.08,60.45 475.78,60.45 477.49,60.45 479.19,60.45 480.89,60.45 482.60,60.45 484.30,60.45 486.00,60.45 487.71,60.45 489.41,60.45 491.11,60.45 492.82,60.45 494.52,60.45 496.22,60.45 497.93,60.45 499.63,60.45 501.33,60.45 503.04,60.45 504.74,60.45 506.44,60.45 508.15,60.45 509.85,60.45 511.56,60.45 513.26,60.45 514.96,60.45 516.67,60.45 518.37,60.45 520.07,60.45 521.78,60.45 523.48,60.45 525.18,60.45 526.89,60.45 528.59,60.45 530.29,60.45 532.00,60.45 533.70,60.45 535.40,60.45 537.11,60.45 538.81,60.45 540.51,60.45 542.22,60.45 543.92,60.45 545.62,60.45 547.33,60.45 549.03,60.45 550.73,60.45 552.44,60.45 554.14,60.45 555.84,60.45 557.55,60.45 559.25,60.45 560.95,60.45 562.66,60.45 564.36,60.45 566.06,60.45 567.77,60.45 569.47,60.45 571.17,60.45 572.88,60.45 574.58,60.45 576.28,60.45 577.99,60.45 579.69,60.45 581.39,60.45 583.10,60.45 584.80,60.45 586.51,60.45 588.21,60.45 589.91,60.45 591.62,60.45 593.32,60.45 595.02,60.45 596.73,60.45 598.43,60.45 600.13,60.45 601.84,60.45 603.54,60.45 605.24,60.45 606.95,60.45 608.65,60.45 610.35,60.45 612.06,60.45 613.76,60.45 615.46,60.45 617.17,60.45 618.87,60.45 620.57,60.45 622.28,60.45 623.98,60.45 625.68,60.45 627.39,60.45 629.09,60.45 630.79,60.45 632.50,60.45 634.20,60.45 635.90,60.45 637.61,60.45 639.31,60.45 641.01,60.45 642.72,60.45 644.42,60.45 646.12,60.45 647.83,60.45 649.53,60.45 651.23,60.45 652.94,60.45 654.64,60.45 656.34,60.45 658.05,60.45 659.75,60.45 661.45,60.45 663.16,60.45 664.86,60.45 666.57,60.45 668.27,60.45 669.97,60.45 671.68,60.45 673.38,60.45 675.08,60.45 676.79,60.45 678.49,60.45 680.19,60.45 681.90,60.45 683.60,60.45 685.30,60.45 687.01,60.45 688.71,60.45 690.41,60.45 692.12,60.45 693.82,60.45 695.52,60.45 697.23,60.45 698.93,60.45 700.63,60.45 702.34,60.45 704.04,60.45 705.74,60.45 707.45,60.45 709.15,60.45 710.85,60.45 712.56,60.45 714.26,60.45 715.96,60.45 717.67,60.45 719.37,60.45 721.07,60.45 722.78,60.45 724.48,60.45 726.18,60.45 727.89,60.45 729.59,60.45 731.29,60.45 733.00,60.45 734.70,60.45 736.40,60.45 738.11,60.45 739.81,60.45 741.52,60.45 743.22,60.45 744.92,60.45 746.63,60.45 748.33,60.45 750.03,60.45 751.74,60.45 753.44,60.45 755.14,60.45 756.85,60.45 758.55,60.45 760.25,60.45 761.96,60.45 763.66,60.45 765.36,60.45 767.07,60.45 768.77,60.45 770.47,60.45 772.18,60.45 773.88,60.45 775.58,60.45 777.29,60.45 778.99,60.45 780.69,60.45 782.40,60.45 784.10,60.45 785.80,60.45 787.51,60.45 789.21,60.45 790.91,60.45 792.62,60.45 794.32,60.45 796.02,60.45 797.73,60.45 799.43,60.45 801.13,60.45 802.84,60.45 804.54,60.45 806.24,60.45 807.95,60.45 809.65,60.45 811.35,60.45 813.06,60.45 814.76,60.45 816.46,60.45 818.17,60.45 819.87,60.45 821.58,60.45 823.28,60.45 824.98,60.45 826.69,60.45 828.39,60.45 830.09,60.45 831.80,60.45 833.50,60.45 835.20,60.45 836.91,60.45 838.61,60.45 840.31,60.45 842.02,60.45 843.72,60.45 845.42,60.45 847.13,60.45 848.83,60.45 850.53,60.45 852.24,60.45 853.94,60.45 855.64,60.45 857.35,60.45 859.05,60.45 860.75,60.45 862.46,60.45 864.16,60.45 865.86,60.45 867.57,60.45 869.27,60.45 870.97,60.45 872.68,60.45 874.38,60.45 876.08,60.45 877.79,60.45 879.49,60.45 881.19,60.45 882.90,60.45 884.60,60.45 886.30,60.45 888.01,60.45 889.71,60.45 891.41,60.45 893.12,60.45 894.82,60.45 896.53,60.45 898.23,60.45 899.93,60.45 901.64,60.45 903.34,60.45 905.04,60.45 906.75,60.45 908.45,60.45 910.15,60.45 911.86,60.45 913.56,60.45 915.26,60.45 916.97,60.45 918.67,60.45 920.37,60.45 922.08,60.45 923.78,60.45 925.48,60.45 927.19,60.45 928.89,60.45 930.59,60.45 932.30,60.45 934.00,60.45" fill="none" stroke="#aa3377" stroke-width="1.5" />
<polyline points="84.00,349.55 85.70,349.55 87.41,349.55 89.11,349.55 90.81,349.55 92.52,349.55 94.22,349.55 95.92,349.55 97.63,349.55 99.33,349.55 101.03,349.55 102.74,349.55 104.44,349.55 106.14,349.55 107.85,349.55 109.55,349.55 111.25,349.55 112.96,349.55 114.66,349.55 116.36,349.55 118.07,349.55 119.77,349.55 121.47,349.55 123.18,349.55 124.88,349.55 126.59,349.55 128.29,349.55 129.99,349.55 131.70,349.55 133.40,349.55 135.10,349.55 136.81,349.55 138.51,349.55 140.21,349.55 141.92,349.55 143.62,349.55 145.32,349.55 147.03,349.55 148.73,349.55 150.43,349.55 152.14,349.55 153.84,349.55 155.54,349.55 157.25,349.55 158.95,349.55 160.65,349.55 162.36,349.55 164.06,349.55 165.76,349.55 167.47,349.55 169.17,349.55 170.87,349.55 172.58,349.55 174.28,349.55 175.98,349.55 177.69,349.55 179.39,349.55 181.09,349.55 182.80,349.55 184.50,349.55 186.20,349.55 187.91,349.55 189.61,349.55 191.31,349.55 193.02,349.55 194.72,349.55 196.42,349.55 198.13,349.55 199.83,349.55 201.54,349.55 203.24,349.55 204.94,349.55 206.65,349.55 208.35,349.55 210.05,349.55 211.76,349.55 213.46,349.55 215.16,349.55 216.87,349.55 218.57,349.55 220.27,349.55 221.98,349.55 223.68,349.55 225.38,349.55 227.09,349.55 228.79,349.55 230.49,349.55 232.20,349.55 233.90,349.55 235.60,349.55 237.31,349.55 239.01,349.55 240.71,349.55 242.42,349.55 244.12,349.55 245.82,349.55 247.53,349.55 249.23,349.55 250.93,349.55 252.64,349.55 254.34,349.55 256.04,349.55 257.75,349.55 259.45,349.55 261.15,349.55 262.86,349.55 264.56,349.55 266.26,349.55 267.97,349.55 269.67,349.55 271.37,349.55 273.08,349.55 274.78,349.55 276.48,349.55 278.19,349.55 279.89,349.55 281.60,349.55 283.30,349.55 285.00,349.55 286.71,349.55 288.41,349.55 290.11,349.55 291.82,349.55 293.52,349.55 295.22,349.55 296.93,349.55 298.63,349.55 300.33,349.55 302.04,349.55 303.74,349.55 305.44,349.55 307.15,349.55 308.85,349.55 310.55,349.55 312.26,349.55 313.96,349.55 315.66,349.55 317.37,349.55 319.07,349.55 320.77,349.55 322.48,349.55 324.18,349.55 325.88,349.55 327.59,349.55 329.29,349.55 330.99,349.55 332.70,349.55 334.40,349.55 336.10,349.55 337.81,349.55 339.51,349.55 341.21,349.55 342.92,349.55 344.62,349.55 346.32,349.55 348.03,349.55 349.73,349.55 351.43,349.55 353.14,349.55 354.84,349.55 356.55,349.55 358.25,349.55 359.95,349.55 361.66,349.55 363.36,349.55 365.06,349.55 366.77,349.55 368.47,349.55 370.17,349.55 371.88,349.55 373.58,349.55 375.28,349.55 376.99,349.55 378.69,349.55 380.39,349.55 382.10,349.55 383.80,349.55 385.50,349.55 387.21,349.55 388.91,349.55 390.61,349.55 392.32,349.55 394.02,349.55 395.72,349.55 397.43,349.55 399.13,349.55 400.83,349.55 402.54,349.55 404.24,349.55 405.94,349.55 407.65,349.55 409.35,349.55 411.05,349.55 412.76,349.55 414.46,349.55 416.16,349.55 417.87,349.55 419.57,349.55 421.27,349.55 422.98,349.55 424.68,349.55 426.38,349.55 428.09,349.55 429.79,349.55 431.49,349.55 433.20,349.55 434.90,349.55 436.61,349.55 438.31,349.55 440.01,349.55 441.72,349.55 443.42,349.55 445.12,349.55 446.83,349.55 448.53,349.55 450.23,349.55 451.94,349.55 453.64,349.55 455.34,349.55 457.05,349.55 458.75,349.55 460.45,349.55 462.16,349.55 463.86,349.55 465.56,349.55 467.27,349.55 468.97,349.55 470.67,349.55 472.38,349.55 474.08,349.55 475.78,349.55 477.49,349.55 479.19,349.55 480.89,349.55 482.60,349.55 484.30,349.55 486.00,349.55 487.71,349.55 489.41,349.55 491.11,349.55 492.82,349.55 494.52,349.55 496.22,349.55 497.93,349.55 499.63,349.55 501.33,349.55 503.04,349.55 504.74,349.55 506.44,349.55 508.15,349.55 509.85,349.55 511.56,349.55 513.26,349.55 514.96,349.55 516.67,349.55 518.37,349.55 520.07,349.55 521.78,349.55 523.48,349.55 525.18,349.55 526.89,349.55 528.59,349.55 530.29,349.55 532.00,349.55 533.70,349.55 535.40,349.55 537.11,349.55 538.81,349.55 540.51,349.55 542.22,349.55 543.92,349.55 545.62,349.55 547.33,349.55 549.03,349.55 550.73,349.55 552.44,349.55 554.14,349.55 555.84,349.55 557.55,349.55 559.25,349.55 560.95,349.55 562.66,349.55 564.36,349.55 566.06,349.55 567.77,349.55 569.47,349.55 571.17,349.55 572.88,349.55 574.58,349.55 576.28,349.55 577.99,349.55 579.69,349.55 581.39,349.55 583.10,349.55 584.80,349.55 586.51,349.55 588.21,349.55 589.91,349.55 591.62,349.55 593.32,349.55 595.02,349.55 596.73,349.55 598.43,349.55 600.13,349.55 601.84,349.55 603.54,349.55 605.24,349.55 606.95,349.55 608.65,349.55 610.35,349.55 612.06,349.55 613.76,349.55 615.46,349.55 617.17,349.55 618.87,349.55 620.57,349.55 622.28,349.55 623.98,349.55 625.68,349.55 627.39,349.55 629.09,349.55 630.79,349.55 632.50,349.55 634.20,349.55 635.90,349.55 637.61,349.55 639.31,349.55 641.01,349.55 642.72,349.55 644.42,349.55 646.12,349.55 647.83,349.55 649.53,349.55 651.23,349.55 652.94,349.55 654.64,349.55 656.34,349.55 658.05,349.55 659.75,349.55 661.45,349.55 663.16,349.55 664.86,349.55 666.57,349.55 668.27,349.55 669.97,349.55 671.68,349.55 673.38,349.55 675.08,349.55 676.79,349.55 678.49,349.55 680.19,349.55 681.90,349.55 683.60,349.55 685.30,349.55 687.01,349.55 688.71,349.55 690.41,349.55 692.12,349.55 693.82,349.55 695.52,349.55 697.23,349.55 698.93,349.55 700.63,349.55 702.34,349.55 704.04,349.55 705.74,349.55 707.45,349.55 709.15,349.55 710.85,349.55 712.56,349.55 714.26,349.55 715.96,349.55 717.67,349.55 719.37,349.55 721.07,349.55 722.78,349.55 724.48,349.55 726.18,349.55 727.89,349.55 729.59,349.55 731.29,349.55 733.00,349.55 734.70,349.55 736.40,349.55 738.11,349.55 739.81,349.55 741.52,349.55 743.22,349.55 744.92,349.55 746.63,349.55 748.33,349.55 750.03,349.55 751.74,349.55 753.44,349.55 755.14,349.55 756.85,349.55 758.55,349.55 760.25,349.55 761.96,349.55 763.66,349.55 765.36,349.55 767.07,349.55 768.77,349.55 770.47,349.55 772.18,349.55 773.88,349.55 775.58,349.55 777.29,349.55 778.99,349.55 780.69,349.55 782.40,349.55 784.10,349.55 785.80,349.55 787.51,349.55 789.21,349.55 790.91,349.55 792.62,349.55 794.32,349.55 796.02,349.55 797.73,349.55 799.43,349.55 801.13,349.55 802.84,349.55 804.54,349.55 806.24,349.55 807.95,349.55 809.65,349.55 811.35,349.55 813.06,349.55 814.76,349.55 816.46,349.55 818.17,349.55 819.87,349.55 821.58,349.55 823.28,349.55 824.98,349.55 826.69,349.55 828.39,349.55 830.09,349.55 831.80,349.55 833.50,349.55 835.20,349.55 836.91,349.55 838.61,349.55 840.31,349.55 842.02,349.55 843.72,349.55 845.42,349.55 847.13,349.55 848.83,349.55 850.53,349.55 852.24,349.55 853.94,349.55 855.64,349.55 857.35,349.55 859.05,349.55 860.75,349.55 862.46,349.55 864.16,349.55 865.86,349.55 867.57,349.55 869.27,349.55 870.97,349.55 872.68,349.55 874.38,349.55 876.08,349.55 877.79,349.55 879.49,349.55 881.19,349.55 882.90,349.55 884.60,349.55 886.30,349.55 888.01,349.55 889.71,349.55 891.41,349.55 893.12,349.55 894.82,349.55 896.53,349.55 898.23,349.55 899.93,349.55 901.64,349.55 903.34,349.55 905.04,349.55 906.75,349.55 908.45,349.55 910.15,349.55 911.86,349.55 913.56,349.55 915.26,349.55 916.97,349.55 918.67,349.55 920.37,349.55 922.08,349.55 923.78,349.55 925.48,349.55 927.19,349.55 928.89,349.55 930.59,349.55 932.30,349.55 934.00,349.55" fill="none" stroke="#777777" stroke-width="1.5" />
<polyline points="84.00,349.55 85.70,349.55 87.41,349.55 89.11,349.55 90.81,349.55 92.52,349.55 94.22,349.55 95.92,349.55 97.63,349.55 99.33,349.55 101.03,349.55 102.74,349.55 104.44,349.55 106.14,349.55 107.85,349.55 109.55,349.55 111.25,349.55 112.96,349.55 114.66,349.55 116.36,349.55 118.07,349.55 119.77,349.55 121.47,349.55 123.18,349.55 124.88,349.55 126.59,349.55 128.29,349.55 129.99,349.55 131.70,349.55 133.40,349.55 135.10,349.55 136.81,349.55 138.51,349.55 140.21,349.55 141.92,349.55 143.62,349.55 145.32,349.55 147.03,349.55 148.73,349.55 150.43,349.55 152.14,349.55 153.84,349.55 155.54,349.55 157.25,349.55 158.95,349.55 160.65,349.55 162.36,349.55 164.06,349.55 165.76,349.55 167.47,349.55 169.17,349.55 170.87,349.55 172.58,349.55 174.28,349.55 175.98,349.55 177.69,349.55 179.39,349.55 181.09,349.55 182.80,349.55 184.50,349.55 186.20,349.55 187.91,349.55 189.61,349.55 191.31,349.55 193.02,349.55 194.72,349.55 196.42,349.55 198.13,349.55 199.83,349.55 201.54,349.55 203.24,349.55 204.94,349.55 206.65,349.55 208.35,349.55 210.05,349.55 211.76,349.55 213.46,349.55 215.16,349.55 216.87,349.55 218.57,349.55 220.27,349.55 221.98,349.55 223.68,349.55 225.38,349.55 227.09,349.55 228.79,349.55 230.49,349.55 232.20,349.55 233.90,349.55 235.60,349.55 237.31,349.55 239.01,349.55 240.71,349.55 242.42,349.55 244.12,349.55 245.82,349.55 247.53,349.55 249.23,349.55 250.93,349.55 252.64,349.55 254.34,349.55 256.04,349.55 257.75,349.55 259.45,349.55 261.15,349.55 262.86,349.55 264.56,349.55 266.26,349.55 267.97,349.55 269.67,349.55 271.37,349.55 273.08,349.55 274.78,349.55 276.48,349.55 278.19,349.55 279.89,349.55 281.60,349.55 283.30,349.55 285.00,349.55 286.71,349.55 288.41,349.55 290.11,349.55 291.82,349.55 293.52,349.55 295.22,349.55 296.93,349.55 298.63,349.55 300.33,349.55 302.04,349.55 303.74,349.55 305.44,349.55 307.15,349.55 308.85,349.55 310.55,349.55 312.26,349.55 313.96,349.55 315.66,349.55 317.37,349.55 319.07,349.55 320.77,349.55 322.48,349.55 324.18,349.55 325.88,349.55 327.59,349.55 329.29,349.55 330.99,349.55 332.70,349.55 334.40,349.55 336.10,349.55 337.81,349.55 339.51,349.55 341.21,349.55 342.92,349.55 344.62,349.55 346.32,349.55 348.03,349.55 349.73,349.55 351.43,349.55 353.14,349.55 354.84,349.55 356.55,349.55 358.25,349.55 359.95,349.55 361.66,349.55 363.36,349.55 365.06,349.55 366.77,349.55 368.47,349.55 370.17,349.55 371.88,349.55 373.58,349.55 375.28,349.55 376.99,349.55 378.69,349.55 380.39,349.55 382.10,349.55 383.80,349.55 385.50,349.55 387.21,349.55 388.91,349.55 390.61,349.55 392.32,349.55 394.02,349.55 395.72,349.55 397.43,349.55 399.13,349.55 400.83,349.55 402.54,349.55 404.24,349.55 405.94,349.55 407.65,349.55 409.35,349.55 411.05,349.55 412.76,349.55 414.46,349.55 416.16,349.55 417.87,349.55 419.57,349.55 421.27,349.55 422.98,349.55 424.68,349.55 426.38,349.55 428.09,349.55 429.79,349.55 431.49,349.55 433.20,349.55 434.90,349.55 436.61,349.55 438.31,349.55 440.01,349.55 441.72,349.55 443.42,349.55 445.12,349.55 446.83,349.55 448.53,349.55 450.23,349.55 451.94,349.55 453.64,349.55 455.34,349.55 457.05,349.55 458.75,349.55 460.45,349.55 462.16,349.55 463.86,349.55 465.56,349.55 467.27,349.55 468.97,349.55 470.67,349.55 472.38,349.55 474.08,349.55 475.78,349.55 477.49,349.55 479.19,349.55 480.89,349.55 482.60,349.55 484.30,349.55 486.00,349.55 487.71,349.55 489.41,349.55 491.11,349.55 492.82,349.55 494.52,349.55 496.22,349.55 497.93,349.55 499.63,349.55 501.33,349.55 503.04,349.55 504.74,349.55 506.44,349.55 508.15,349.55 509.85,349.55 511.56,349.55 513.26,349.55 514.96,349.55 516.67,349.55 518.37,349.55 520.07,349.55 521.78,349.55 523.48,349.55 525.18,349.55 526.89,349.55 528.59,349.55 530.29,349.55 532.00,349.55 533.70,349.55 535.40,349.55 537.11,349.55 538.81,349.55 540.51,349.55 542.22,349.55 543.92,349.55 545.62,349.55 547.33,349.55 549.03,349.55 550.73,349.55 552.44,349.55 554.14,349.55 555.84,349.55 557.55,349.55 559.25,349.55 560.95,349.55 562.66,349.55 564.36,349.55 566.06,349.55 567.77,349.55 569.47,349.55 571.17,349.55 572.88,349.55 574.58,349.55 576.28,349.55 577.99,349.55 579.69,349.55 581.39,349.55 583.10,349.55 584.80,349.55 586.51,349.55 588.21,349.55 589.91,349.55 591.62,349.55 593.32,349.55 595.02,349.55 596.73,349.55 598.43,349.55 600.13,349.55 601.84,349.55 603.54,349.55 605.24,349.55 606.95,349.55 608.65,349.55 610.35,349.55 612.06,349.55 613.76,349.55 615.46,349.55 617.17,349.55 618.87,349.55 620.57,349.55 622.28,349.55 623.98,349.55 625.68,349.55 627.39,349.55 629.09,349.55 630.79,349.55 632.50,349.55 634.20,349.55 635.90,349.55 637.61,349.55 639.31,349.55 641.01,349.55 642.72,349.55 644.42,349.55 646.12,349.55 647.83,349.55 649.53,349.55 651.23,349.55 652.94,349.55 654.64,349.55 656.34,349.55 658.05,349.55 659.75,349.55 661.45,349.55 663.16,349.55 664.86,349.55 666.57,349.55 668.27,349.55 669.97,349.55 671.68,349.55 673.38,349.55 675.08,349.55 676.79,349.55 678.49,349.55 680.19,349.55 681.90,349.55 683.60,349.55 685.30,349.55 687.01,349.55 688.71,349.55 690.41,349.55 692.12,349.55 693.82,349.55 695.52,349.55 697.23,349.55 698.93,349.55 700.63,349.55 702.34,349.55 704.04,349.55 705.74,349.55 707.45,349.55 709.15,349.55 710.85,349.55 712.56,349.55 714.26,349.55 715.96,349.55 717.67,349.55 719.37,349.55 721.07,349.55 722.78,349.55 724.48,349.55 726.18,349.55 727.89,349.55 729.59,349.55 731.29,349.55 733.00,349.55 734.70,349.55 736.40,349.55 738.11,349.55 739.81,349.55 741.52,349.55 743.22,349.55 744.92,349.55 746.63,349.55 748.33,349.55 750.03,349.55 751.74,349.55 753.44,349.55 755.14,349.55 756.85,349.55 758.55,349.55 760.25,349.55 761.96,349.55 763.66,349.55 765.36,349.55 767.07,349.55 768.77,349.55 770.47,349.55 772.18,349.55 773.88,349.55 775.58,349.55 777.29,349.55 778.99,349.55 780.69,349.55 782.40,349.55 784.10,349.55 785.80,349.55 787.51,349.55 789.21,349.55 790.91,349.55 792.62,349.55 794.32,349.55 796.02,349.55 797.73,349.55 799.43,349.55 801.13,349.55 802.84,349.55 804.54,349.55 806.24,349.55 807.95,349.55 809.65,349.55 811.35,349.55 813.06,349.55 814.76,349.55 816.46,349.55 818.17,349.55 819.87,349.55 821.58,349.55 823.28,349.55 824.98,349.55 826.69,349.55 828.39,349.55 830.09,349.55 831.80,349.55 833.50,349.55 835.20,349.55 836.91,349.55 838.61,349.55 840.31,349.55 842.02,349.55 843.72,349.55 845.42,349.55 847.13,349.55 848.83,349.55 850.53,349.55 852.24,349.55 853.94,349.55 855.64,349.55 857.35,349.55 859.05,349.55 860.75,349.55 862.46,349.55 864.16,349.55 865.86,349.55 867.57,349.55 869.27,349.55 870.97,349.55 872.68,349.55 874.38,349.55 876.08,349.55 877.79,349.55 879.49,349.55 881.19,349.55 882.90,349.55 884.60,349.55 886.30,349.55 888.01,349.55 889.71,349.55 891.41,349.55 893.12,349.55 894.82,349.55 896.53,349.55 898.23,349.55 899.93,349.55 901.64,349.55 903.34,349.55 905.04,349.55 906.75,349.55 908.45,349.55 910.15,349.55 911.86,349.55 913.56,349.55 915.26,349.55 916.97,349.55 918.67,349.55 920.37,349.55 922.08,349.55 923.78,349.55 925.48,349.55 927.19,349.55 928.89,349.55 930.59,349.55 932.30,349.55 934.00,349.55" fill="none" stroke="#ee7733" stroke-width="1.5" />
<g class="legend">
<line x1="744" y1="62" x2="766" y2="62" stroke="#0066cc" stroke-width="2" />
<text x="772" y="66" font-size="11" font-family="Arial, sans-serif">target_0</text>
<line x1="744" y1="80" x2="766" y2="80" stroke="#cc5500" stroke-width="2" />
<text x="772" y="84" font-size="11" font-family="Arial, sans-serif">target_1</text>
<line x1="744" y1="98" x2="766" y2="98" stroke="#228833" stroke-width="2" />
<text x="772" y="102" font-size="11" font-family="Arial, sans-serif">target_2</text>
<line x1="744" y1="116" x2="766" y2="116" stroke="#aa3377" stroke-width="2" />
<text x="772" y="120" font-size="11" font-family="Arial, sans-serif">target_3</text>
<line x1="744" y1="134" x2="766" y2="134" stroke="#777777" stroke-width="2" />
<text x="772" y="138" font-size="11" font-family="Arial, sans-serif">target_4</text>
<line x1="744" y1="152" x2="766" y2="152" stroke="#ee7733" stroke-width="2" />
<text x="772" y="156" font-size="11" font-family="Arial, sans-serif">target_5</text>
</g>
</svg>