<svg xmlns="http://www.w3.org/2000/svg" width="960" height="430" viewBox="0 0 960 430">
<text x="84" y="24" font-size="16" font-family="Arial, sans-serif">aoa_error_bootstrap proposed_full_pipeline_beta_confidence beta error reduction under AoA initialization bias</text>
<rect x="84" y="46" width="850" height="318" fill="white" stroke="#777" />
<line x1="84" y1="364" x2="934" y2="364" stroke="#333" stroke-width="1" />
<line x1="84" y1="46" x2="84" y2="364" stroke="#333" stroke-width="1" />
<line x1="84.00" y1="46" x2="84.00" y2="364" stroke="#e6e6e6" stroke-width="1" />
<line x1="84.00" y1="364" x2="84.00" y2="369" stroke="#333" stroke-width="1" />
<text x="84.00" y="386" text-anchor="middle" font-size="11" font-family="Arial, sans-serif" fill="#333">0.000</text>
<line x1="254.00" y1="46" x2="254.00" y2="364" stroke="#e6e6e6" stroke-width="1" />
<line x1="254.00" y1="364" x2="254.00" y2="369" stroke="#333" stroke-width="1" />
<text x="254.00" y="386" text-anchor="middle" font-size="11" font-family="Arial, sans-serif" fill="#333">0.998</text>
<line x1="424.00" y1="46" x2="424.00" y2="364" stroke="#e6e6e6" stroke-width="1" />
<line x1="424.00" y1="364" x2="424.00" y2="369" stroke="#333" stroke-width="1" />
<text x="424.00" y="386" text-anchor="middle" font-size="11" font-family="Arial, sans-serif" fill="#333">2.00</text>
<line x1="594.00" y1="46" x2="594.00" y2="364" stroke="#e6e6e6" stroke-width="1" />
<line x1="594.00" y1="364" x2="594.00" y2="369" stroke="#333" stroke-width="1" />
<text x="594.00" y="386" text-anchor="middle" font-size="11" font-family="Arial, sans-serif" fill="#333">2.99</text>
<line x1="764.00" y1="46" x2="764.00" y2="364" stroke="#e6e6e6" stroke-width="1" />
<line x1="764.00" y1="364" x2="764.00" y2="369" stroke="#333" stroke-width="1" />
<text x="764.00" y="386" text-anchor="middle" font-size="11" font-family="Arial, sans-serif" fill="#333">3.99</text>
<line x1="934.00" y1="46" x2="934.00" y2="364" stroke="#e6e6e6" stroke-width="1" />
<line x1="934.00" y1="364" x2="934.00" y2="369" stroke="#333" stroke-width="1" />
<text x="934.00" y="386" text-anchor="middle" font-size="11" font-family="Arial, sans-serif" fill="#333">4.99</text>
<line x1="84" y1="364.00" x2="934" y2="364.00" stroke="#e6e6e6" stroke-width="1" />
<line x1="79" y1="364.00" x2="84" y2="364.00" stroke="#333" stroke-width="1" />
<text x="75" y="368.00" text-anchor="end" font-size="11" font-family="Arial, sans-serif" fill="#333">0.942</text>
<line x1="84" y1="300.40" x2="934" y2="300.40" stroke="#e6e6e6" stroke-width="1" />
<line x1="79" y1="300.40" x2="84" y2="300.40" stroke="#333" stroke-width="1" />
<text x="75" y="304.40" text-anchor="end" font-size="11" font-family="Arial, sans-serif" fill="#333">1.11</text>
<line x1="84" y1="236.80" x2="934" y2="236.80" stroke="#e6e6e6" stroke-width="1" />
<line x1="79" y1="236.80" x2="84" y2="236.80" stroke="#333" stroke-width="1" />
<text x="75" y="240.80" text-anchor="end" font-size="11" font-family="Arial, sans-serif" fill="#333">1.28</text>
<line x1="84" y1="173.20" x2="934" y2="173.20" stroke="#e6e6e6" stroke-width="1" />
<line x1="79" y1="173.20" x2="84" y2="173.20" stroke="#333" stroke-width="1" />
<text x="75" y="177.20" text-anchor="end" font-size="11" font-family="Arial, sans-serif" fill="#333">1.45</text>
<line x1="84" y1="109.60" x2="934" y2="109.60" stroke="#e6e6e6" stroke-width="1" />
<line x1="79" y1="109.60" x2="84" y2="109.60" stroke="#333" stroke-width="1" />
<text x="75" y="113.60" text-anchor="end" font-size="11" font-family="Arial, sans-serif" fill="#333">1.61</text>
<line x1="84" y1="46.00" x2="934" y2="46.00" stroke="#e6e6e6" stroke-width="1" />
<line x1="79" y1="46.00" x2="84" y2="46.00" stroke="#333" stroke-width="1" />
<text x="75" y="50.00" text-anchor="end" font-size="11" font-family="Arial, sans-serif" fill="#333">1.78</text>
<text x="509.00" y="412" text-anchor="middle" font-size="13" font-family="Arial, sans-serif">Time (s)</text>
<text transform="translate(22 205.00) rotate(-90)" text-anchor="middle" font-size="13" font-family="Arial, sans-serif">LOS-to-structure conversion factor beta</text>
<polyline points="84.00,335.23 85.70,335.23 87.41,335.23 89.11,335.23 90.81,335.23 92.52,335.23 94.22,335.23 95.92,335.23 97.63,335.23 99.33,335.23 101.03,335.23 102.74,335.23 104.44,335.23 106.14,335.23 107.85,335.23 109.55,335.23 111.25,335.23 112.96,335.23 114.66,335.23 116.36,335.23 118.07,335.23 119.77,335.23 121.47,335.23 123.18,335.23 124.88,335.23 126.59,335.23 128.29,335.23 129.99,335.23 131.70,335.23 133.40,335.23 135.10,335.23 136.81,335.23 138.51,335.23 140.21,335.23 141.92,335.23 143.62,335.23 145.32,335.23 147.03,335.23 148.73,335.23 150.43,335.23 152.14,335.23 153.84,335.23 155.54,335.23 157.25,335.23 158.95,335.28 160.65,335.35 162.36,335.51 164.06,335.73 165.76,336.00 167.47,336.30 169.17,336.57 170.87,336.83 172.58,337.06 174.28,337.29 175.98,337.50 177.69,337.67 179.39,337.86 181.09,338.01 182.80,338.17 184.50,338.33 186.20,338.49 187.91,338.66 189.61,338.86 191.31,339.15 193.02,339.39 194.72,339.70 196.42,339.99 198.13,340.23 199.83,340.44 201.54,340.64 203.24,340.82 204.94,340.98 206.65,341.12 208.35,341.23 210.05,341.36 211.76,341.45 213.46,341.54 215.16,341.60 216.87,341.66 218.57,341.72 220.27,341.78 221.98,341.84 223.68,341.89 225.38,341.96 227.09,342.01 228.79,342.03 230.49,342.01 232.20,342.08 233.90,342.07 235.60,342.00 237.31,341.94 239.01,341.84 240.71,341.58 242.42,341.22 244.12,340.96 245.82,340.59 247.53,340.33 249.23,339.92 250.93,339.52 252.64,339.12 254.34,338.76 256.04,338.60 257.75,338.44 259.45,338.29 261.15,338.21 262.86,338.13 264.56,338.06 266.26,338.04 267.97,338.17 269.67,338.27 271.37,338.63 273.08,339.07 274.78,339.50 276.48,339.81 278.19,340.22 279.89,340.95 281.60,341.56 283.30,341.68 285.00,342.92 286.71,344.00 288.41,345.05 290.11,345.55 291.82,345.47 293.52,345.17 295.22,344.81 296.93,344.39 298.63,344.20 300.33,343.97 302.04,343.75 303.74,343.57 305.44,343.42 307.15,343.22 308.85,343.19 310.55,343.14 312.26,343.13 313.96,343.05 315.66,343.03 317.37,343.02 319.07,343.01 320.77,343.02 322.48,343.18 324.18,343.36 325.88,343.47 327.59,343.58 329.29,343.66 330.99,343.86 332.70,344.02 334.40,344.21 336.10,344.24 337.81,344.25 339.51,344.39 341.21,344.59 342.92,344.67 344.62,344.95 346.32,345.22 348.03,345.48 349.73,345.69 351.43,345.85 353.14,345.98 354.84,346.08 356.55,346.19 358.25,346.33 359.95,346.39 361.66,346.39 363.36,346.65 365.06,346.74 366.77,346.81 368.47,346.73 370.17,346.45 371.88,346.27 373.58,346.12 375.28,346.11 376.99,346.10 378.69,346.14 380.39,346.17 382.10,346.22 383.80,346.25 385.50,346.31 387.21,346.36 388.91,346.40 390.61,346.44 392.32,346.42 394.02,346.42 395.72,346.42 397.43,346.42 399.13,346.45 400.83,346.49 402.54,346.52 404.24,346.54 405.94,346.59 407.65,346.56 409.35,346.56 411.05,346.58 412.76,346.62 414.46,346.55 416.16,346.46 417.87,346.47 419.57,346.47 421.27,346.40 422.98,346.45 424.68,346.45 426.38,346.49 428.09,346.61 429.79,346.76 431.49,346.88 433.20,347.01 434.90,347.06 436.61,347.09 438.31,347.15 440.01,347.19 441.72,347.21 443.42,347.25 445.12,347.27 446.83,347.30 448.53,347.30 450.23,347.31 451.94,347.28 453.64,347.22 455.34,347.17 457.05,347.15 458.75,347.07 460.45,346.96 462.16,346.93 463.86,346.88 465.56,346.86 467.27,346.77 468.97,346.71 470.67,346.60 472.38,346.42 474.08,346.23 475.78,346.07 477.49,345.93 479.19,345.86 480.89,345.74 482.60,345.66 484.30,345.70 486.00,345.75 487.71,345.90 489.41,346.05 491.11,346.11 492.82,346.24 494.52,346.42 496.22,346.57 497.93,346.65 499.63,346.62 501.33,346.55 503.04,346.52 504.74,346.53 506.44,346.72 508.15,346.88 509.85,347.03 511.56,347.09 513.26,347.16 514.96,347.19 516.67,347.22 518.37,347.22 520.07,347.20 521.78,347.15 523.48,347.11 525.18,347.08 526.89,347.04 528.59,347.02 530.29,347.01 532.00,347.00 533.70,346.97 535.40,346.95 537.11,346.94 538.81,346.95 540.51,346.94 542.22,346.97 543.92,347.11 545.62,347.11 547.33,347.05 549.03,347.18 550.73,347.40 552.44,347.62 554.14,347.70 555.84,347.85 557.55,347.98 559.25,348.01 560.95,348.04 562.66,348.06 564.36,348.01 566.06,347.90 567.77,347.84 569.47,347.79 571.17,347.74 572.88,347.77 574.58,347.73 576.28,347.76 577.99,347.77 579.69,347.71 581.39,347.68 583.10,347.66 584.80,347.65 586.51,347.70 588.21,347.72 589.91,347.76 591.62,347.81 593.32,347.84 595.02,347.90 596.73,347.90 598.43,347.93 600.13,347.98 601.84,348.01 603.54,348.18 605.24,348.29 606.95,348.44 608.65,348.69 610.35,348.92 612.06,349.06 613.76,349.19 615.46,349.32 617.17,349.45 618.87,349.52 620.57,349.50 622.28,349.55 623.98,349.43 625.68,349.23 627.39,349.14 629.09,348.98 630.79,348.63 632.50,348.44 634.20,348.36 635.90,348.28 637.61,348.36 639.31,348.43 641.01,348.51 642.72,348.57 644.42,348.60 646.12,348.62 647.83,348.67 649.53,348.72 651.23,348.75 652.94,348.79 654.64,348.84 656.34,348.89 658.05,348.96 659.75,349.01 661.45,349.03 663.16,349.07 664.86,349.07 666.57,349.09 668.27,349.04 669.97,348.95 671.68,348.86 673.38,348.67 675.08,348.49 676.79,348.30 678.49,348.24 680.19,348.08 681.90,348.08 683.60,348.11 685.30,347.91 687.01,347.71 688.71,347.48 690.41,347.31 692.12,347.16 693.82,346.99 695.52,346.81 697.23,346.67 698.93,346.55 700.63,346.45 702.34,346.43 704.04,346.44 705.74,346.41 707.45,346.41 709.15,346.38 710.85,346.40 712.56,346.34 714.26,346.29 715.96,346.33 717.67,346.34 719.37,346.36 721.07,346.35 722.78,346.41 724.48,346.50 726.18,346.53 727.89,346.51 729.59,346.54 731.29,346.39 733.00,346.36 734.70,346.27 736.40,346.18 738.11,346.10 739.81,345.95 741.52,345.86 743.22,345.78 744.92,345.66 746.63,345.64 748.33,345.62 750.03,345.58 751.74,345.53 753.44,345.35 755.14,345.27 756.85,345.19 758.55,345.20 760.25,345.26 761.96,345.36 763.66,345.41 765.36,345.44 767.07,345.62 768.77,345.69 770.47,345.74 772.18,345.78 773.88,345.83 775.58,345.87 777.29,345.83 778.99,345.82 780.69,345.81 782.40,345.86 784.10,345.84 785.80,345.82 787.51,345.80 789.21,345.76 790.91,345.75 792.62,345.77 794.32,345.78 796.02,345.75 797.73,345.69 799.43,345.73 801.13,345.65 802.84,345.56 804.54,345.63 806.24,345.60 807.95,345.72 809.65,345.94 811.35,346.05 813.06,346.26 814.76,346.28 816.46,346.33 818.17,346.28 819.87,346.29 821.58,346.35 823.28,346.38 824.98,346.42 826.69,346.48 828.39,346.51 830.09,346.55 831.80,346.61 833.50,346.65 835.20,346.73 836.91,346.77 838.61,346.80 840.31,346.80 842.02,346.89 843.72,346.91 845.42,346.93 847.13,346.95 848.83,347.10 850.53,347.23 852.24,347.32 853.94,347.34 855.64,347.17 857.35,347.12 859.05,346.97 860.75,346.88 862.46,346.86 864.16,346.83 865.86,346.75 867.57,346.85 869.27,346.85 870.97,346.81 872.68,346.86 874.38,346.86 876.08,346.81 877.79,346.76 879.49,346.72 881.19,346.78 882.90,346.81 884.60,346.82 886.30,346.79 888.01,346.79 889.71,346.95 891.41,347.00 893.12,347.05 894.82,346.91 896.53,346.79 898.23,346.76 899.93,346.71 901.64,346.63 903.34,346.57 905.04,346.52 906.75,346.52 908.45,346.60 910.15,346.58 911.86,346.54 913.56,346.59 915.26,346.61 916.97,346.61 918.67,346.52 920.37,346.41 922.08,346.30 923.78,346.34 925.48,346.34 927.19,346.35 928.89,346.45 930.59,346.56 932.30,346.58 934.00,346.83" fill="none" stroke="#0066cc" stroke-width="1.5" />
<polyline points="84.00,336.23 85.70,336.23 87.41,336.23 89.11,336.23 90.81,336.23 92.52,336.23 94.22,336.23 95.92,336.23 97.63,336.23 99.33,336.23 101.03,336.23 102.74,336.23 104.44,336.23 106.14,336.23 107.85,336.23 109.55,336.23 111.25,336.23 112.96,336.23 114.66,336.23 116.36,336.23 118.07,336.23 119.77,336.23 121.47,336.23 123.18,336.23 124.88,336.23 126.59,336.23 128.29,336.23 129.99,336.23 131.70,336.23 133.40,336.23 135.10,336.23 136.81,336.23 138.51,336.23 140.21,336.23 141.92,336.23 143.62,336.23 145.32,336.23 147.03,336.23 148.73,336.23 150.43,336.23 152.14,336.23 153.84,336.23 155.54,336.23 157.25,336.23 158.95,336.23 160.65,336.23 162.36,336.23 164.06,336.23 165.76,336.23 167.47,336.23 169.17,336.23 170.87,336.23 172.58,336.23 174.28,336.23 175.98,336.23 177.69,336.23 179.39,336.23 181.09,336.23 182.80,336.23 184.50,336.23 186.20,336.23 187.91,336.23 189.61,336.23 191.31,336.23 193.02,336.23 194.72,336.23 196.42,336.23 198.13,336.23 199.83,336.23 201.54,336.23 203.24,336.23 204.94,336.23 206.65,336.23 208.35,336.23 210.05,336.23 211.76,336.23 213.46,336.23 215.16,336.23 216.87,336.23 218.57,336.23 220.27,336.23 221.98,336.23 223.68,336.23 225.38,336.23 227.09,336.23 228.79,336.23 230.49,336.23 232.20,336.23 233.90,336.23 235.60,336.23 237.31,336.23 239.01,336.23 240.71,336.23 242.42,336.23 244.12,336.23 245.82,336.23 247.53,336.23 249.23,336.23 250.93,336.23 252.64,336.23 254.34,336.23 256.04,336.23 257.75,336.23 259.45,336.23 261.15,336.23 262.86,336.23 264.56,336.23 266.26,336.23 267.97,336.23 269.67,336.23 271.37,336.23 273.08,336.23 274.78,336.23 276.48,336.23 278.19,336.23 279.89,336.23 281.60,336.23 283.30,336.23 285.00,336.23 286.71,336.23 288.41,336.23 290.11,336.23 291.82,336.23 293.52,336.23 295.22,336.23 296.93,336.23 298.63,336.23 300.33,336.23 302.04,336.23 303.74,336.23 305.44,336.23 307.15,336.23 308.85,336.23 310.55,336.23 312.26,336.23 313.96,336.23 315.66,336.23 317.37,336.23 319.07,336.23 320.77,336.23 322.48,336.23 324.18,336.23 325.88,336.23 327.59,336.23 329.29,336.23 330.99,336.23 332.70,336.23 334.40,336.23 336.10,336.23 337.81,336.23 339.51,336.23 341.21,336.23 342.92,336.23 344.62,336.23 346.32,336.23 348.03,336.23 349.73,336.23 351.43,336.23 353.14,336.23 354.84,336.23 356.55,336.23 358.25,336.23 359.95,336.23 361.66,336.23 363.36,336.23 365.06,336.23 366.77,336.23 368.47,336.23 370.17,336.23 371.88,336.23 373.58,336.23 375.28,336.23 376.99,336.23 378.69,336.23 380.39,336.23 382.10,336.23 383.80,336.23 385.50,336.23 387.21,336.23 388.91,336.23 390.61,336.23 392.32,336.23 394.02,336.23 395.72,336.23 397.43,336.23 399.13,336.23 400.83,336.23 402.54,336.23 404.24,336.23 405.94,336.23 407.65,336.23 409.35,336.23 411.05,336.23 412.76,336.23 414.46,336.23 416.16,336.23 417.87,336.23 419.57,336.23 421.27,336.23 422.98,336.23 424.68,336.23 426.38,336.23 428.09,336.23 429.79,336.23 431.49,336.23 433.20,336.23 434.90,336.23 436.61,336.23 438.31,336.23 440.01,336.23 441.72,336.23 443.42,336.23 445.12,336.23 446.83,336.23 448.53,336.23 450.23,336.23 451.94,336.23 453.64,336.23 455.34,336.23 457.05,336.23 458.75,336.23 460.45,336.23 462.16,336.23 463.86,336.23 465.56,336.23 467.27,336.23 468.97,336.23 470.67,336.23 472.38,336.23 474.08,336.23 475.78,336.23 477.49,336.23 479.19,336.23 480.89,336.23 482.60,336.23 484.30,336.23 486.00,336.23 487.71,336.23 489.41,336.23 491.11,336.23 492.82,336.23 494.52,336.23 496.22,336.23 497.93,336.23 499.63,336.23 501.33,336.23 503.04,336.23 504.74,336.23 506.44,336.23 508.15,336.23 509.85,336.23 511.56,336.23 513.26,336.23 514.96,336.23 516.67,336.23 518.37,336.23 520.07,336.23 521.78,336.23 523.48,336.23 525.18,336.23 526.89,336.23 528.59,336.23 530.29,336.23 532.00,336.23 533.70,336.23 535.40,336.23 537.11,336.23 538.81,336.23 540.51,336.23 542.22,336.23 543.92,336.23 545.62,336.23 547.33,336.23 549.03,336.23 550.73,336.23 552.44,336.23 554.14,336.23 555.84,336.23 557.55,336.23 559.25,336.23 560.95,336.23 562.66,336.23 564.36,336.23 566.06,336.23 567.77,336.23 569.47,336.23 571.17,336.23 572.88,336.23 574.58,336.23 576.28,336.23 577.99,336.23 579.69,336.23 581.39,336.23 583.10,336.23 584.80,336.23 586.51,336.23 588.21,336.23 589.91,336.23 591.62,336.23 593.32,336.23 595.02,336.23 596.73,336.23 598.43,336.23 600.13,336.23 601.84,336.23 603.54,336.23 605.24,336.23 606.95,336.23 608.65,336.23 610.35,336.23 612.06,336.23 613.76,336.23 615.46,336.23 617.17,336.23 618.87,336.23 620.57,336.23 622.28,336.23 623.98,336.23 625.68,336.23 627.39,336.23 629.09,336.23 630.79,336.23 632.50,336.23 634.20,336.23 635.90,336.23 637.61,336.23 639.31,336.23 641.01,336.23 642.72,336.23 644.42,336.23 646.12,336.23 647.83,336.23 649.53,336.23 651.23,336.23 652.94,336.23 654.64,336.23 656.34,336.23 658.05,336.23 659.75,336.23 661.45,336.23 663.16,336.23 664.86,336.23 666.57,336.23 668.27,336.23 669.97,336.23 671.68,336.23 673.38,336.23 675.08,336.23 676.79,336.23 678.49,336.23 680.19,336.23 681.90,336.23 683.60,336.23 685.30,336.23 687.01,336.23 688.71,336.23 690.41,336.23 692.12,336.23 693.82,336.23 695.52,336.23 697.23,336.23 698.93,336.23 700.63,336.23 702.34,336.23 704.04,336.23 705.74,336.23 707.45,336.23 709.15,336.23 710.85,336.23 712.56,336.23 714.26,336.23 715.96,336.23 717.67,336.23 719.37,336.23 721.07,336.23 722.78,336.23 724.48,336.23 726.18,336.23 727.89,336.23 729.59,336.23 731.29,336.23 733.00,336.23 734.70,336.23 736.40,336.23 738.11,336.23 739.81,336.23 741.52,336.23 743.22,336.23 744.92,336.23 746.63,336.23 748.33,336.23 750.03,336.23 751.74,336.23 753.44,336.23 755.14,336.23 756.85,336.23 758.55,336.23 760.25,336.23 761.96,336.23 763.66,336.23 765.36,336.23 767.07,336.23 768.77,336.23 770.47,336.23 772.18,336.23 773.88,336.23 775.58,336.23 777.29,336.23 778.99,336.23 780.69,336.23 782.40,336.23 784.10,336.23 785.80,336.23 787.51,336.23 789.21,336.23 790.91,336.23 792.62,336.23 794.32,336.23 796.02,336.23 797.73,336.23 799.43,336.23 801.13,336.23 802.84,336.23 804.54,336.23 806.24,336.23 807.95,336.23 809.65,336.23 811.35,336.23 813.06,336.23 814.76,336.23 816.46,336.23 818.17,336.23 819.87,336.23 821.58,336.23 823.28,336.23 824.98,336.23 826.69,336.23 828.39,336.23 830.09,336.23 831.80,336.23 833.50,336.23 835.20,336.23 836.91,336.23 838.61,336.23 840.31,336.23 842.02,336.23 843.72,336.23 845.42,336.23 847.13,336.23 848.83,336.23 850.53,336.23 852.24,336.23 853.94,336.23 855.64,336.23 857.35,336.23 859.05,336.23 860.75,336.23 862.46,336.23 864.16,336.23 865.86,336.23 867.57,336.23 869.27,336.23 870.97,336.23 872.68,336.23 874.38,336.23 876.08,336.23 877.79,336.23 879.49,336.23 881.19,336.23 882.90,336.23 884.60,336.23 886.30,336.23 888.01,336.23 889.71,336.23 891.41,336.23 893.12,336.23 894.82,336.23 896.53,336.23 898.23,336.23 899.93,336.23 901.64,336.23 903.34,336.23 905.04,336.23 906.75,336.23 908.45,336.23 910.15,336.23 911.86,336.23 913.56,336.23 915.26,336.23 916.97,336.23 918.67,336.23 920.37,336.23 922.08,336.23 923.78,336.23 925.48,336.23 927.19,336.23 928.89,336.23 930.59,336.23 932.30,336.23 934.00,336.23" fill="none" stroke="#111111" stroke-width="1.5" />
<polyline points="84.00,299.62 85.70,299.62 87.41,299.62 89.11,299.62 90.81,299.62 92.52,299.62 94.22,299.62 95.92,299.62 97.63,299.62 99.33,299.62 101.03,299.62 102.74,299.62 104.44,299.62 106.14,299.62 107.85,299.62 109.55,299.62 111.25,299.62 112.96,299.62 114.66,299.62 116.36,299.62 118.07,299.62 119.77,299.62 121.47,299.62 123.18,299.62 124.88,299.62 126.59,299.62 128.29,299.62 129.99,299.62 131.70,299.62 133.40,299.62 135.10,299.62 136.81,299.62 138.51,299.62 140.21,299.62 141.92,299.62 143.62,299.62 145.32,299.62 147.03,299.62 148.73,299.62 150.43,299.62 152.14,299.62 153.84,299.62 155.54,299.62 157.25,299.62 158.95,299.62 160.65,299.65 162.36,299.77 164.06,299.94 165.76,300.21 167.47,300.51 169.17,300.80 170.87,301.08 172.58,301.35 174.28,301.57 175.98,301.79 177.69,302.06 179.39,302.26 181.09,302.50 182.80,302.68 184.50,302.83 186.20,302.99 187.91,303.16 189.61,303.38 191.31,303.62 193.02,303.95 194.72,304.24 196.42,304.51 198.13,304.77 199.83,305.03 201.54,305.28 203.24,305.53 204.94,305.76 206.65,306.00 208.35,306.24 210.05,306.48 211.76,306.78 213.46,307.10 215.16,307.42 216.87,307.74 218.57,308.05 220.27,308.33 221.98,308.60 223.68,308.87 225.38,309.13 227.09,309.41 228.79,309.73 230.49,310.10 232.20,310.46 233.90,310.90 235.60,311.42 237.31,311.93 239.01,312.56 240.71,313.30 242.42,314.24 244.12,315.13 245.82,315.78 247.53,316.26 249.23,316.96 250.93,317.64 252.64,318.29 254.34,318.82 256.04,319.16 257.75,319.39 259.45,319.53 261.15,319.55 262.86,319.60 264.56,319.63 266.26,319.66 267.97,319.52 269.67,319.29 271.37,318.86 273.08,318.56 274.78,318.18 276.48,317.91 278.19,317.55 279.89,316.93 281.60,316.09 283.30,315.39 285.00,313.88 286.71,312.80 288.41,311.71 290.11,311.11 291.82,311.29 293.52,312.34 295.22,313.46 296.93,314.46 298.63,315.35 300.33,316.12 302.04,316.73 303.74,317.30 305.44,317.77 307.15,318.38 308.85,318.68 310.55,318.96 312.26,319.14 313.96,319.23 315.66,319.22 317.37,319.56 319.07,319.88 320.77,320.13 322.48,320.23 324.18,320.16 325.88,320.12 327.59,320.07 329.29,320.03 330.99,319.87 332.70,319.67 334.40,319.55 336.10,319.53 337.81,319.61 339.51,319.43 341.21,319.29 342.92,319.34 344.62,319.19 346.32,319.10 348.03,318.95 349.73,318.85 351.43,318.85 353.14,318.82 354.84,318.77 356.55,318.63 358.25,318.57 359.95,318.57 361.66,318.57 363.36,318.34 365.06,318.24 366.77,318.24 368.47,318.34 370.17,318.52 371.88,318.58 373.58,318.69 375.28,318.64 376.99,318.65 378.69,318.62 380.39,318.61 382.10,318.60 383.80,318.58 385.50,318.52 387.21,318.47 388.91,318.42 390.61,318.37 392.32,318.39 394.02,318.40 395.72,318.41 397.43,318.42 399.13,318.39 400.83,318.30 402.54,318.21 404.24,318.16 405.94,318.11 407.65,318.18 409.35,318.27 411.05,318.29 412.76,318.26 414.46,318.43 416.16,318.52 417.87,318.59 419.57,318.59 421.27,318.80 422.98,318.98 424.68,319.16 426.38,319.36 428.09,319.47 429.79,319.43 431.49,319.39 433.20,319.33 434.90,319.28 436.61,319.30 438.31,319.27 440.01,319.25 441.72,319.22 443.42,319.19 445.12,319.14 446.83,319.12 448.53,319.12 450.23,319.19 451.94,319.20 453.64,319.12 455.34,319.04 457.05,318.97 458.75,318.96 460.45,319.06 462.16,319.10 463.86,319.16 465.56,319.16 467.27,319.21 468.97,319.22 470.67,319.23 472.38,319.42 474.08,319.57 475.78,319.78 477.49,319.97 479.19,320.07 480.89,320.19 482.60,320.24 484.30,320.17 486.00,320.03 487.71,319.81 489.41,319.62 491.11,319.42 492.82,319.26 494.52,319.01 496.22,318.73 497.93,318.42 499.63,318.20 501.33,318.15 503.04,318.00 504.74,317.82 506.44,317.56 508.15,317.36 509.85,317.10 511.56,316.97 513.26,316.80 514.96,316.68 516.67,316.56 518.37,316.50 520.07,316.46 521.78,316.44 523.48,316.41 525.18,316.38 526.89,316.40 528.59,316.36 530.29,316.32 532.00,316.28 533.70,316.25 535.40,316.26 537.11,316.23 538.81,316.26 540.51,316.27 542.22,316.26 543.92,316.09 545.62,315.96 547.33,316.01 549.03,315.90 550.73,315.56 552.44,315.30 554.14,315.12 555.84,314.96 557.55,314.68 559.25,314.42 560.95,314.18 562.66,313.91 564.36,313.72 566.06,313.65 567.77,313.55 569.47,313.51 571.17,313.44 572.88,313.30 574.58,313.20 576.28,313.13 577.99,313.07 579.69,313.04 581.39,313.04 583.10,312.98 584.80,312.90 586.51,312.71 588.21,312.70 589.91,312.68 591.62,312.62 593.32,312.57 595.02,312.54 596.73,312.67 598.43,312.83 600.13,312.93 601.84,313.09 603.54,313.02 605.24,312.99 606.95,312.89 608.65,312.59 610.35,312.33 612.06,312.08 613.76,311.89 615.46,311.70 617.17,311.47 618.87,311.35 620.57,311.32 622.28,311.32 623.98,311.49 625.68,311.63 627.39,311.73 629.09,311.94 630.79,312.30 632.50,312.57 634.20,312.90 635.90,313.20 637.61,313.21 639.31,313.27 641.01,313.28 642.72,313.27 644.42,313.26 646.12,313.30 647.83,313.26 649.53,313.19 651.23,313.15 652.94,313.09 654.64,313.02 656.34,312.94 658.05,312.90 659.75,312.88 661.45,312.87 663.16,312.84 664.86,312.87 666.57,312.90 668.27,313.01 669.97,313.12 671.68,313.29 673.38,313.63 675.08,313.81 676.79,313.94 678.49,313.90 680.19,313.88 681.90,313.77 683.60,313.61 685.30,313.65 687.01,313.76 688.71,313.88 690.41,313.98 692.12,314.04 693.82,314.10 695.52,314.19 697.23,314.29 698.93,314.40 700.63,314.52 702.34,314.56 704.04,314.60 705.74,314.65 707.45,314.71 709.15,314.76 710.85,314.82 712.56,314.84 714.26,314.90 715.96,314.83 717.67,314.79 719.37,314.71 721.07,314.69 722.78,314.62 724.48,314.72 726.18,314.80 727.89,314.77 729.59,314.63 731.29,314.64 733.00,314.47 734.70,314.36 736.40,314.30 738.11,314.19 739.81,314.24 741.52,314.30 743.22,314.30 744.92,314.30 746.63,314.28 748.33,314.30 750.03,314.34 751.74,314.37 753.44,314.69 755.14,314.79 756.85,314.81 758.55,314.77 760.25,314.65 761.96,314.61 763.66,314.65 765.36,314.58 767.07,314.39 768.77,314.28 770.47,314.12 772.18,314.03 773.88,313.95 775.58,313.93 777.29,313.98 778.99,313.94 780.69,313.94 782.40,313.88 784.10,313.90 785.80,313.96 787.51,313.99 789.21,314.05 790.91,314.07 792.62,314.02 794.32,313.95 796.02,314.02 797.73,314.03 799.43,313.95 801.13,313.96 802.84,314.05 804.54,313.88 806.24,313.83 807.95,313.59 809.65,313.05 811.35,312.70 813.06,312.39 814.76,312.27 816.46,312.25 818.17,312.27 819.87,312.23 821.58,312.15 823.28,312.13 824.98,312.10 826.69,312.05 828.39,312.06 830.09,312.06 831.80,312.05 833.50,312.05 835.20,312.00 836.91,311.97 838.61,311.92 840.31,311.91 842.02,311.82 843.72,311.73 845.42,311.62 847.13,311.56 848.83,311.38 850.53,311.18 852.24,311.10 853.94,311.17 855.64,311.40 857.35,311.51 859.05,311.71 860.75,311.63 862.46,311.55 864.16,311.56 865.86,311.70 867.57,311.63 869.27,311.68 870.97,311.70 872.68,311.62 874.38,311.60 876.08,311.61 877.79,311.62 879.49,311.71 881.19,311.77 882.90,311.84 884.60,311.80 886.30,311.88 888.01,311.99 889.71,311.85 891.41,311.88 893.12,311.99 894.82,312.19 896.53,312.35 898.23,312.40 899.93,312.43 901.64,312.48 903.34,312.49 905.04,312.49 906.75,312.45 908.45,312.27 910.15,312.16 911.86,312.09 913.56,311.93 915.26,311.88 916.97,311.82 918.67,311.86 920.37,311.97 922.08,312.12 923.78,312.24 925.48,312.45 927.19,312.65 928.89,312.75 930.59,312.82 932.30,312.83 934.00,312.68" fill="none" stroke="#cc5500" stroke-width="1.5" />
<polyline points="84.00,302.91 85.70,302.91 87.41,302.91 89.11,302.91 90.81,302.91 92.52,302.91 94.22,302.91 95.92,302.91 97.63,302.91 99.33,302.91 101.03,302.91 102.74,302.91 104.44,302.91 106.14,302.91 107.85,302.91 109.55,302.91 111.25,302.91 112.96,302.91 114.66,302.91 116.36,302.91 118.07,302.91 119.77,302.91 121.47,302.91 123.18,302.91 124.88,302.91 126.59,302.91 128.29,302.91 129.99,302.91 131.70,302.91 133.40,302.91 135.10,302.91 136.81,302.91 138.51,302.91 140.21,302.91 141.92,302.91 143.62,302.91 145.32,302.91 147.03,302.91 148.73,302.91 150.43,302.91 152.14,302.91 153.84,302.91 155.54,302.91 157.25,302.91 158.95,302.91 160.65,302.91 162.36,302.91 164.06,302.91 165.76,302.91 167.47,302.91 169.17,302.91 170.87,302.91 172.58,302.91 174.28,302.91 175.98,302.91 177.69,302.91 179.39,302.91 181.09,302.91 182.80,302.91 184.50,302.91 186.20,302.91 187.91,302.91 189.61,302.91 191.31,302.91 193.02,302.91 194.72,302.91 196.42,302.91 198.13,302.91 199.83,302.91 201.54,302.91 203.24,302.91 204.94,302.91 206.65,302.91 208.35,302.91 210.05,302.91 211.76,302.91 213.46,302.91 215.16,302.91 216.87,302.91 218.57,302.91 220.27,302.91 221.98,302.91 223.68,302.91 225.38,302.91 227.09,302.91 228.79,302.91 230.49,302.91 232.20,302.91 233.90,302.91 235.60,302.91 237.31,302.91 239.01,302.91 240.71,302.91 242.42,302.91 244.12,302.91 245.82,302.91 247.53,302.91 249.23,302.91 250.93,302.91 252.64,302.91 254.34,302.91 256.04,302.91 257.75,302.91 259.45,302.91 261.15,302.91 262.86,302.91 264.56,302.91 266.26,302.91 267.97,302.91 269.67,302.91 271.37,302.91 273.08,302.91 274.78,302.91 276.48,302.91 278.19,302.91 279.89,302.91 281.60,302.91 283.30,302.91 285.00,302.91 286.71,302.91 288.41,302.91 290.11,302.91 291.82,302.91 293.52,302.91 295.22,302.91 296.93,302.91 298.63,302.91 300.33,302.91 302.04,302.91 303.74,302.91 305.44,302.91 307.15,302.91 308.85,302.91 310.55,302.91 312.26,302.91 313.96,302.91 315.66,302.91 317.37,302.91 319.07,302.91 320.77,302.91 322.48,302.91 324.18,302.91 325.88,302.91 327.59,302.91 329.29,302.91 330.99,302.91 332.70,302.91 334.40,302.91 336.10,302.91 337.81,302.91 339.51,302.91 341.21,302.91 342.92,302.91 344.62,302.91 346.32,302.91 348.03,302.91 349.73,302.91 351.43,302.91 353.14,302.91 354.84,302.91 356.55,302.91 358.25,302.91 359.95,302.91 361.66,302.91 363.36,302.91 365.06,302.91 366.77,302.91 368.47,302.91 370.17,302.91 371.88,302.91 373.58,302.91 375.28,302.91 376.99,302.91 378.69,302.91 380.39,302.91 382.10,302.91 383.80,302.91 385.50,302.91 387.21,302.91 388.91,302.91 390.61,302.91 392.32,302.91 394.02,302.91 395.72,302.91 397.43,302.91 399.13,302.91 400.83,302.91 402.54,302.91 404.24,302.91 405.94,302.91 407.65,302.91 409.35,302.91 411.05,302.91 412.76,302.91 414.46,302.91 416.16,302.91 417.87,302.91 419.57,302.91 421.27,302.91 422.98,302.91 424.68,302.91 426.38,302.91 428.09,302.91 429.79,302.91 431.49,302.91 433.20,302.91 434.90,302.91 436.61,302.91 438.31,302.91 440.01,302.91 441.72,302.91 443.42,302.91 445.12,302.91 446.83,302.91 448.53,302.91 450.23,302.91 451.94,302.91 453.64,302.91 455.34,302.91 457.05,302.91 458.75,302.91 460.45,302.91 462.16,302.91 463.86,302.91 465.56,302.91 467.27,302.91 468.97,302.91 470.67,302.91 472.38,302.91 474.08,302.91 475.78,302.91 477.49,302.91 479.19,302.91 480.89,302.91 482.60,302.91 484.30,302.91 486.00,302.91 487.71,302.91 489.41,302.91 491.11,302.91 492.82,302.91 494.52,302.91 496.22,302.91 497.93,302.91 499.63,302.91 501.33,302.91 503.04,302.91 504.74,302.91 506.44,302.91 508.15,302.91 509.85,302.91 511.56,302.91 513.26,302.91 514.96,302.91 516.67,302.91 518.37,302.91 520.07,302.91 521.78,302.91 523.48,302.91 525.18,302.91 526.89,302.91 528.59,302.91 530.29,302.91 532.00,302.91 533.70,302.91 535.40,302.91 537.11,302.91 538.81,302.91 540.51,302.91 542.22,302.91 543.92,302.91 545.62,302.91 547.33,302.91 549.03,302.91 550.73,302.91 552.44,302.91 554.14,302.91 555.84,302.91 557.55,302.91 559.25,302.91 560.95,302.91 562.66,302.91 564.36,302.91 566.06,302.91 567.77,302.91 569.47,302.91 571.17,302.91 572.88,302.91 574.58,302.91 576.28,302.91 577.99,302.91 579.69,302.91 581.39,302.91 583.10,302.91 584.80,302.91 586.51,302.91 588.21,302.91 589.91,302.91 591.62,302.91 593.32,302.91 595.02,302.91 596.73,302.91 598.43,302.91 600.13,302.91 601.84,302.91 603.54,302.91 605.24,302.91 606.95,302.91 608.65,302.91 610.35,302.91 612.06,302.91 613.76,302.91 615.46,302.91 617.17,302.91 618.87,302.91 620.57,302.91 622.28,302.91 623.98,302.91 625.68,302.91 627.39,302.91 629.09,302.91 630.79,302.91 632.50,302.91 634.20,302.91 635.90,302.91 637.61,302.91 639.31,302.91 641.01,302.91 642.72,302.91 644.42,302.91 646.12,302.91 647.83,302.91 649.53,302.91 651.23,302.91 652.94,302.91 654.64,302.91 656.34,302.91 658.05,302.91 659.75,302.91 661.45,302.91 663.16,302.91 664.86,302.91 666.57,302.91 668.27,302.91 669.97,302.91 671.68,302.91 673.38,302.91 675.08,302.91 676.79,302.91 678.49,302.91 680.19,302.91 681.90,302.91 683.60,302.91 685.30,302.91 687.01,302.91 688.71,302.91 690.41,302.91 692.12,302.91 693.82,302.91 695.52,302.91 697.23,302.91 698.93,302.91 700.63,302.91 702.34,302.91 704.04,302.91 705.74,302.91 707.45,302.91 709.15,302.91 710.85,302.91 712.56,302.91 714.26,302.91 715.96,302.91 717.67,302.91 719.37,302.91 721.07,302.91 722.78,302.91 724.48,302.91 726.18,302.91 727.89,302.91 729.59,302.91 731.29,302.91 733.00,302.91 734.70,302.91 736.40,302.91 738.11,302.91 739.81,302.91 741.52,302.91 743.22,302.91 744.92,302.91 746.63,302.91 748.33,302.91 750.03,302.91 751.74,302.91 753.44,302.91 755.14,302.91 756.85,302.91 758.55,302.91 760.25,302.91 761.96,302.91 763.66,302.91 765.36,302.91 767.07,302.91 768.77,302.91 770.47,302.91 772.18,302.91 773.88,302.91 775.58,302.91 777.29,302.91 778.99,302.91 780.69,302.91 782.40,302.91 784.10,302.91 785.80,302.91 787.51,302.91 789.21,302.91 790.91,302.91 792.62,302.91 794.32,302.91 796.02,302.91 797.73,302.91 799.43,302.91 801.13,302.91 802.84,302.91 804.54,302.91 806.24,302.91 807.95,302.91 809.65,302.91 811.35,302.91 813.06,302.91 814.76,302.91 816.46,302.91 818.17,302.91 819.87,302.91 821.58,302.91 823.28,302.91 824.98,302.91 826.69,302.91 828.39,302.91 830.09,302.91 831.80,302.91 833.50,302.91 835.20,302.91 836.91,302.91 838.61,302.91 840.31,302.91 842.02,302.91 843.72,302.91 845.42,302.91 847.13,302.91 848.83,302.91 850.53,302.91 852.24,302.91 853.94,302.91 855.64,302.91 857.35,302.91 859.05,302.91 860.75,302.91 862.46,302.91 864.16,302.91 865.86,302.91 867.57,302.91 869.27,302.91 870.97,302.91 872.68,302.91 874.38,302.91 876.08,302.91 877.79,302.91 879.49,302.91 881.19,302.91 882.90,302.91 884.60,302.91 886.30,302.91 888.01,302.91 889.71,302.91 891.41,302.91 893.12,302.91 894.82,302.91 896.53,302.91 898.23,302.91 899.93,302.91 901.64,302.91 903.34,302.91 905.04,302.91 906.75,302.91 908.45,302.91 910.15,302.91 911.86,302.91 913.56,302.91 915.26,302.91 916.97,302.91 918.67,302.91 920.37,302.91 922.08,302.91 923.78,302.91 925.48,302.91 927.19,302.91 928.89,302.91 930.59,302.91 932.30,302.91 934.00,302.91" fill="none" stroke="#111111" stroke-width="1.5" />
<polyline points="84.00,218.85 85.70,218.85 87.41,218.85 89.11,218.85 90.81,218.85 92.52,218.85 94.22,218.85 95.92,218.85 97.63,218.85 99.33,218.85 101.03,218.85 102.74,218.85 104.44,218.85 106.14,218.85 107.85,218.85 109.55,218.85 111.25,218.85 112.96,218.85 114.66,218.85 116.36,218.85 118.07,218.85 119.77,218.85 121.47,218.85 123.18,218.85 124.88,218.85 126.59,218.85 128.29,218.85 129.99,218.85 131.70,218.85 133.40,218.85 135.10,218.85 136.81,218.85 138.51,218.85 140.21,218.85 141.92,218.85 143.62,218.85 145.32,218.85 147.03,218.85 148.73,218.85 150.43,218.85 152.14,218.85 153.84,218.85 155.54,218.85 157.25,218.85 158.95,218.85 160.65,218.85 162.36,218.85 164.06,218.85 165.76,218.85 167.47,218.85 169.17,218.85 170.87,218.85 172.58,218.85 174.28,218.85 175.98,218.85 177.69,218.85 179.39,218.85 181.09,218.85 182.80,218.85 184.50,218.85 186.20,218.85 187.91,218.85 189.61,218.87 191.31,218.96 193.02,219.14 194.72,219.26 196.42,219.40 198.13,219.58 199.83,219.75 201.54,219.91 203.24,220.10 204.94,220.29 206.65,220.52 208.35,220.77 210.05,221.01 211.76,221.28 213.46,221.48 215.16,221.70 216.87,221.92 218.57,222.15 220.27,222.37 221.98,222.58 223.68,222.73 225.38,222.92 227.09,223.12 228.79,223.43 230.49,223.79 232.20,224.15 233.90,224.51 235.60,224.90 237.31,225.36 239.01,225.79 240.71,226.41 242.42,227.29 244.12,228.15 245.82,229.46 247.53,230.90 249.23,232.31 250.93,233.52 252.64,234.68 254.34,235.87 256.04,236.93 257.75,238.03 259.45,239.05 261.15,239.95 262.86,240.65 264.56,241.27 266.26,241.85 267.97,242.69 269.67,243.29 271.37,243.61 273.08,243.68 274.78,243.72 276.48,243.74 278.19,243.79 279.89,243.55 281.60,243.71 283.30,244.53 285.00,244.92 286.71,244.63 288.41,245.72 290.11,246.51 291.82,246.79 293.52,246.16 295.22,245.46 296.93,244.78 298.63,243.97 300.33,243.46 302.04,243.14 303.74,242.77 305.44,242.37 307.15,241.81 308.85,241.38 310.55,240.95 312.26,240.47 313.96,240.61 315.66,240.76 317.37,240.12 319.07,239.50 320.77,238.85 322.48,237.91 324.18,237.67 325.88,237.52 327.59,237.39 329.29,237.30 330.99,237.00 332.70,236.85 334.40,236.51 336.10,236.52 337.81,236.31 339.51,236.40 341.21,236.23 342.92,235.97 344.62,235.39 346.32,234.95 348.03,234.66 349.73,234.44 351.43,233.89 353.14,233.59 354.84,233.32 356.55,233.24 358.25,232.81 359.95,232.82 361.66,232.89 363.36,233.01 365.06,233.27 366.77,233.49 368.47,233.72 370.17,234.29 371.88,235.09 373.58,235.64 375.28,236.22 376.99,236.65 378.69,236.93 380.39,237.16 382.10,237.25 383.80,237.29 385.50,237.30 387.21,237.31 388.91,237.29 390.61,237.24 392.32,237.25 394.02,237.23 395.72,237.21 397.43,237.16 399.13,237.15 400.83,237.20 402.54,237.29 404.24,237.28 405.94,237.30 407.65,237.35 409.35,237.28 411.05,237.30 412.76,237.48 414.46,237.60 416.16,237.84 417.87,237.84 419.57,237.90 421.27,237.81 422.98,237.46 424.68,237.05 426.38,236.59 428.09,236.16 429.79,235.98 431.49,235.84 433.20,235.80 434.90,235.76 436.61,235.63 438.31,235.44 440.01,235.39 441.72,235.43 443.42,235.46 445.12,235.56 446.83,235.56 448.53,235.59 450.23,235.37 451.94,235.37 453.64,235.78 455.34,236.13 457.05,236.45 458.75,236.96 460.45,237.16 462.16,237.24 463.86,237.40 465.56,237.60 467.27,237.84 468.97,238.14 470.67,238.48 472.38,238.71 474.08,239.05 475.78,239.16 477.49,239.23 479.19,239.31 480.89,239.60 482.60,239.83 484.30,239.90 486.00,239.99 487.71,239.92 489.41,239.82 491.11,239.98 492.82,239.94 494.52,239.94 496.22,239.92 497.93,240.19 499.63,240.21 501.33,240.31 503.04,240.55 504.74,240.73 506.44,240.66 508.15,240.40 509.85,240.28 511.56,240.09 513.26,239.94 514.96,239.89 516.67,239.90 518.37,239.88 520.07,239.90 521.78,240.01 523.48,240.14 525.18,240.25 526.89,240.36 528.59,240.45 530.29,240.55 532.00,240.61 533.70,240.71 535.40,240.72 537.11,240.82 538.81,240.72 540.51,240.70 542.22,240.63 543.92,240.51 545.62,240.67 547.33,240.74 549.03,240.48 550.73,240.37 552.44,240.17 554.14,240.20 555.84,240.10 557.55,240.15 559.25,240.52 560.95,240.78 562.66,241.09 564.36,241.48 566.06,241.79 567.77,242.05 569.47,242.24 571.17,242.49 572.88,242.72 574.58,243.10 576.28,243.17 577.99,243.19 579.69,243.34 581.39,243.38 583.10,243.52 584.80,243.71 586.51,243.94 588.21,243.95 589.91,243.86 591.62,243.83 593.32,243.79 595.02,243.69 596.73,243.40 598.43,242.94 600.13,242.49 601.84,242.02 603.54,241.59 605.24,241.26 606.95,240.91 608.65,240.57 610.35,240.26 612.06,240.15 613.76,239.96 615.46,239.80 617.17,239.73 618.87,239.64 620.57,239.69 622.28,239.53 623.98,239.48 625.68,239.77 627.39,239.84 629.09,239.75 630.79,240.01 632.50,240.01 634.20,239.60 635.90,239.45 637.61,239.11 639.31,238.62 641.01,238.30 642.72,238.14 644.42,238.04 646.12,237.89 647.83,237.76 649.53,237.77 651.23,237.69 652.94,237.70 654.64,237.71 656.34,237.70 658.05,237.61 659.75,237.52 661.45,237.44 663.16,237.31 664.86,237.14 666.57,236.89 668.27,236.78 669.97,236.78 671.68,236.58 673.38,236.34 675.08,236.20 676.79,236.42 678.49,236.54 680.19,237.03 681.90,237.19 683.60,237.29 685.30,237.56 687.01,237.72 688.71,237.92 690.41,238.02 692.12,238.16 693.82,238.35 695.52,238.58 697.23,238.72 698.93,238.81 700.63,238.85 702.34,238.78 704.04,238.71 705.74,238.62 707.45,238.48 709.15,238.35 710.85,238.10 712.56,238.08 714.26,238.03 715.96,237.94 717.67,237.91 719.37,237.90 721.07,237.89 722.78,237.86 724.48,237.42 726.18,237.21 727.89,237.24 729.59,237.50 731.29,237.96 733.00,238.50 734.70,239.09 736.40,239.55 738.11,239.98 739.81,240.26 741.52,240.23 743.22,240.43 744.92,240.73 746.63,240.80 748.33,240.80 750.03,240.87 751.74,240.97 753.44,240.92 755.14,241.00 756.85,241.11 758.55,241.16 760.25,241.26 761.96,241.04 763.66,240.78 765.36,240.90 767.07,240.72 768.77,240.74 770.47,240.81 772.18,240.87 773.88,240.85 775.58,240.76 777.29,240.79 778.99,240.86 780.69,240.86 782.40,240.86 784.10,240.86 785.80,240.78 787.51,240.80 789.21,240.74 790.91,240.66 792.62,240.63 794.32,240.60 796.02,240.47 797.73,240.73 799.43,240.95 801.13,241.27 802.84,241.70 804.54,242.02 806.24,242.26 807.95,242.47 809.65,243.03 811.35,243.66 813.06,243.77 814.76,244.00 816.46,243.88 818.17,243.97 819.87,244.03 821.58,244.02 823.28,243.95 824.98,243.89 826.69,243.85 828.39,243.72 830.09,243.60 831.80,243.46 833.50,243.27 835.20,243.00 836.91,242.82 838.61,242.69 840.31,242.60 842.02,242.52 843.72,242.66 845.42,242.92 847.13,243.11 848.83,243.12 850.53,243.23 852.24,243.16 853.94,243.05 855.64,243.05 857.35,242.99 859.05,242.92 860.75,243.18 862.46,243.32 864.16,243.45 865.86,243.41 867.57,243.21 869.27,242.97 870.97,242.90 872.68,242.85 874.38,242.83 876.08,242.91 877.79,243.09 879.49,242.95 881.19,242.60 882.90,242.33 884.60,242.27 886.30,242.05 888.01,241.67 889.71,241.30 891.41,240.91 893.12,240.54 894.82,240.48 896.53,240.43 898.23,240.35 899.93,240.38 901.64,240.46 903.34,240.65 905.04,240.70 906.75,240.70 908.45,240.76 910.15,241.00 911.86,241.31 913.56,241.45 915.26,241.50 916.97,241.63 918.67,241.82 920.37,241.92 922.08,242.03 923.78,241.87 925.48,241.62 927.19,241.41 928.89,241.05 930.59,240.71 932.30,240.60 934.00,240.05" fill="none" stroke="#228833" stroke-width="1.5" />
<polyline points="84.00,226.38 85.70,226.38 87.41,226.38 89.11,226.38 90.81,226.38 92.52,226.38 94.22,226.38 95.92,226.38 97.63,226.38 99.33,226.38 101.03,226.38 102.74,226.38 104.44,226.38 106.14,226.38 107.85,226.38 109.55,226.38 111.25,226.38 112.96,226.38 114.66,226.38 116.36,226.38 118.07,226.38 119.77,226.38 121.47,226.38 123.18,226.38 124.88,226.38 126.59,226.38 128.29,226.38 129.99,226.38 131.70,226.38 133.40,226.38 135.10,226.38 136.81,226.38 138.51,226.38 140.21,226.38 141.92,226.38 143.62,226.38 145.32,226.38 147.03,226.38 148.73,226.38 150.43,226.38 152.14,226.38 153.84,226.38 155.54,226.38 157.25,226.38 158.95,226.38 160.65,226.38 162.36,226.38 164.06,226.38 165.76,226.38 167.47,226.38 169.17,226.38 170.87,226.38 172.58,226.38 174.28,226.38 175.98,226.38 177.69,226.38 179.39,226.38 181.09,226.38 182.80,226.38 184.50,226.38 186.20,226.38 187.91,226.38 189.61,226.38 191.31,226.38 193.02,226.38 194.72,226.38 196.42,226.38 198.13,226.38 199.83,226.38 201.54,226.38 203.24,226.38 204.94,226.38 206.65,226.38 208.35,226.38 210.05,226.38 211.76,226.38 213.46,226.38 215.16,226.38 216.87,226.38 218.57,226.38 220.27,226.38 221.98,226.38 223.68,226.38 225.38,226.38 227.09,226.38 228.79,226.38 230.49,226.38 232.20,226.38 233.90,226.38 235.60,226.38 237.31,226.38 239.01,226.38 240.71,226.38 242.42,226.38 244.12,226.38 245.82,226.38 247.53,226.38 249.23,226.38 250.93,226.38 252.64,226.38 254.34,226.38 256.04,226.38 257.75,226.38 259.45,226.38 261.15,226.38 262.86,226.38 264.56,226.38 266.26,226.38 267.97,226.38 269.67,226.38 271.37,226.38 273.08,226.38 274.78,226.38 276.48,226.38 278.19,226.38 279.89,226.38 281.60,226.38 283.30,226.38 285.00,226.38 286.71,226.38 288.41,226.38 290.11,226.38 291.82,226.38 293.52,226.38 295.22,226.38 296.93,226.38 298.63,226.38 300.33,226.38 302.04,226.38 303.74,226.38 305.44,226.38 307.15,226.38 308.85,226.38 310.55,226.38 312.26,226.38 313.96,226.38 315.66,226.38 317.37,226.38 319.07,226.38 320.77,226.38 322.48,226.38 324.18,226.38 325.88,226.38 327.59,226.38 329.29,226.38 330.99,226.38 332.70,226.38 334.40,226.38 336.10,226.38 337.81,226.38 339.51,226.38 341.21,226.38 342.92,226.38 344.62,226.38 346.32,226.38 348.03,226.38 349.73,226.38 351.43,226.38 353.14,226.38 354.84,226.38 356.55,226.38 358.25,226.38 359.95,226.38 361.66,226.38 363.36,226.38 365.06,226.38 366.77,226.38 368.47,226.38 370.17,226.38 371.88,226.38 373.58,226.38 375.28,226.38 376.99,226.38 378.69,226.38 380.39,226.38 382.10,226.38 383.80,226.38 385.50,226.38 387.21,226.38 388.91,226.38 390.61,226.38 392.32,226.38 394.02,226.38 395.72,226.38 397.43,226.38 399.13,226.38 400.83,226.38 402.54,226.38 404.24,226.38 405.94,226.38 407.65,226.38 409.35,226.38 411.05,226.38 412.76,226.38 414.46,226.38 416.16,226.38 417.87,226.38 419.57,226.38 421.27,226.38 422.98,226.38 424.68,226.38 426.38,226.38 428.09,226.38 429.79,226.38 431.49,226.38 433.20,226.38 434.90,226.38 436.61,226.38 438.31,226.38 440.01,226.38 441.72,226.38 443.42,226.38 445.12,226.38 446.83,226.38 448.53,226.38 450.23,226.38 451.94,226.38 453.64,226.38 455.34,226.38 457.05,226.38 458.75,226.38 460.45,226.38 462.16,226.38 463.86,226.38 465.56,226.38 467.27,226.38 468.97,226.38 470.67,226.38 472.38,226.38 474.08,226.38 475.78,226.38 477.49,226.38 479.19,226.38 480.89,226.38 482.60,226.38 484.30,226.38 486.00,226.38 487.71,226.38 489.41,226.38 491.11,226.38 492.82,226.38 494.52,226.38 496.22,226.38 497.93,226.38 499.63,226.38 501.33,226.38 503.04,226.38 504.74,226.38 506.44,226.38 508.15,226.38 509.85,226.38 511.56,226.38 513.26,226.38 514.96,226.38 516.67,226.38 518.37,226.38 520.07,226.38 521.78,226.38 523.48,226.38 525.18,226.38 526.89,226.38 528.59,226.38 530.29,226.38 532.00,226.38 533.70,226.38 535.40,226.38 537.11,226.38 538.81,226.38 540.51,226.38 542.22,226.38 543.92,226.38 545.62,226.38 547.33,226.38 549.03,226.38 550.73,226.38 552.44,226.38 554.14,226.38 555.84,226.38 557.55,226.38 559.25,226.38 560.95,226.38 562.66,226.38 564.36,226.38 566.06,226.38 567.77,226.38 569.47,226.38 571.17,226.38 572.88,226.38 574.58,226.38 576.28,226.38 577.99,226.38 579.69,226.38 581.39,226.38 583.10,226.38 584.80,226.38 586.51,226.38 588.21,226.38 589.91,226.38 591.62,226.38 593.32,226.38 595.02,226.38 596.73,226.38 598.43,226.38 600.13,226.38 601.84,226.38 603.54,226.38 605.24,226.38 606.95,226.38 608.65,226.38 610.35,226.38 612.06,226.38 613.76,226.38 615.46,226.38 617.17,226.38 618.87,226.38 620.57,226.38 622.28,226.38 623.98,226.38 625.68,226.38 627.39,226.38 629.09,226.38 630.79,226.38 632.50,226.38 634.20,226.38 635.90,226.38 637.61,226.38 639.31,226.38 641.01,226.38 642.72,226.38 644.42,226.38 646.12,226.38 647.83,226.38 649.53,226.38 651.23,226.38 652.94,226.38 654.64,226.38 656.34,226.38 658.05,226.38 659.75,226.38 661.45,226.38 663.16,226.38 664.86,226.38 666.57,226.38 668.27,226.38 669.97,226.38 671.68,226.38 673.38,226.38 675.08,226.38 676.79,226.38 678.49,226.38 680.19,226.38 681.90,226.38 683.60,226.38 685.30,226.38 687.01,226.38 688.71,226.38 690.41,226.38 692.12,226.38 693.82,226.38 695.52,226.38 697.23,226.38 698.93,226.38 700.63,226.38 702.34,226.38 704.04,226.38 705.74,226.38 707.45,226.38 709.15,226.38 710.85,226.38 712.56,226.38 714.26,226.38 715.96,226.38 717.67,226.38 719.37,226.38 721.07,226.38 722.78,226.38 724.48,226.38 726.18,226.38 727.89,226.38 729.59,226.38 731.29,226.38 733.00,226.38 734.70,226.38 736.40,226.38 738.11,226.38 739.81,226.38 741.52,226.38 743.22,226.38 744.92,226.38 746.63,226.38 748.33,226.38 750.03,226.38 751.74,226.38 753.44,226.38 755.14,226.38 756.85,226.38 758.55,226.38 760.25,226.38 761.96,226.38 763.66,226.38 765.36,226.38 767.07,226.38 768.77,226.38 770.47,226.38 772.18,226.38 773.88,226.38 775.58,226.38 777.29,226.38 778.99,226.38 780.69,226.38 782.40,226.38 784.10,226.38 785.80,226.38 787.51,226.38 789.21,226.38 790.91,226.38 792.62,226.38 794.32,226.38 796.02,226.38 797.73,226.38 799.43,226.38 801.13,226.38 802.84,226.38 804.54,226.38 806.24,226.38 807.95,226.38 809.65,226.38 811.35,226.38 813.06,226.38 814.76,226.38 816.46,226.38 818.17,226.38 819.87,226.38 821.58,226.38 823.28,226.38 824.98,226.38 826.69,226.38 828.39,226.38 830.09,226.38 831.80,226.38 833.50,226.38 835.20,226.38 836.91,226.38 838.61,226.38 840.31,226.38 842.02,226.38 843.72,226.38 845.42,226.38 847.13,226.38 848.83,226.38 850.53,226.38 852.24,226.38 853.94,226.38 855.64,226.38 857.35,226.38 859.05,226.38 860.75,226.38 862.46,226.38 864.16,226.38 865.86,226.38 867.57,226.38 869.27,226.38 870.97,226.38 872.68,226.38 874.38,226.38 876.08,226.38 877.79,226.38 879.49,226.38 881.19,226.38 882.90,226.38 884.60,226.38 886.30,226.38 888.01,226.38 889.71,226.38 891.41,226.38 893.12,226.38 894.82,226.38 896.53,226.38 898.23,226.38 899.93,226.38 901.64,226.38 903.34,226.38 905.04,226.38 906.75,226.38 908.45,226.38 910.15,226.38 911.86,226.38 913.56,226.38 915.26,226.38 916.97,226.38 918.67,226.38 920.37,226.38 922.08,226.38 923.78,226.38 925.48,226.38 927.19,226.38 928.89,226.38 930.59,226.38 932.30,226.38 934.00,226.38" fill="none" stroke="#111111" stroke-width="1.5" />
<polyline points="84.00,71.09 85.70,71.09 87.41,71.09 89.11,71.09 90.81,71.09 92.52,71.09 94.22,71.09 95.92,71.09 97.63,71.09 99.33,71.09 101.03,71.09 102.74,71.09 104.44,71.09 106.14,71.09 107.85,71.09 109.55,71.09 111.25,71.09 112.96,71.09 114.66,71.09 116.36,71.09 118.07,71.09 119.77,71.09 121.47,71.09 123.18,71.09 124.88,71.09 126.59,71.09 128.29,71.09 129.99,71.09 131.70,71.09 133.40,71.09 135.10,71.09 136.81,71.09 138.51,71.09 140.21,71.09 141.92,71.09 143.62,71.09 145.32,71.09 147.03,71.09 148.73,71.09 150.43,71.09 152.14,71.09 153.84,71.09 155.54,71.09 157.25,71.09 158.95,71.09 160.65,71.09 162.36,71.09 164.06,71.09 165.76,71.09 167.47,71.09 169.17,71.09 170.87,71.09 172.58,71.09 174.28,71.09 175.98,71.09 177.69,71.09 179.39,71.09 181.09,71.09 182.80,71.09 184.50,71.09 186.20,71.09 187.91,71.09 189.61,71.09 191.31,71.09 193.02,71.09 194.72,71.09 196.42,71.09 198.13,71.09 199.83,71.09 201.54,71.09 203.24,71.09 204.94,71.09 206.65,71.09 208.35,71.09 210.05,71.09 211.76,71.09 213.46,71.09 215.16,71.09 216.87,71.09 218.57,71.09 220.27,71.09 221.98,71.09 223.68,71.09 225.38,71.09 227.09,71.09 228.79,71.09 230.49,71.09 232.20,71.09 233.90,71.09 235.60,71.09 237.31,71.09 239.01,71.09 240.71,71.09 242.42,71.09 244.12,71.58 245.82,73.07 247.53,74.90 249.23,76.71 250.93,78.59 252.64,80.43 254.34,82.27 256.04,84.14 257.75,85.91 259.45,87.81 261.15,89.69 262.86,91.51 264.56,93.18 266.26,94.84 267.97,96.67 269.67,99.85 271.37,103.31 273.08,106.88 274.78,110.26 276.48,113.36 278.19,115.86 279.89,118.32 281.60,121.06 283.30,123.93 285.00,127.11 286.71,130.92 288.41,132.47 290.11,132.78 291.82,133.18 293.52,132.54 295.22,131.68 296.93,132.10 298.63,132.11 300.33,132.36 302.04,132.41 303.74,132.32 305.44,132.30 307.15,131.98 308.85,131.32 310.55,131.30 312.26,132.42 313.96,132.63 315.66,132.43 317.37,132.04 319.07,131.15 320.77,129.31 322.48,128.05 324.18,126.27 325.88,125.12 327.59,123.99 329.29,122.86 330.99,121.89 332.70,121.75 334.40,121.57 336.10,121.46 337.81,121.99 339.51,122.92 341.21,122.70 342.92,121.77 344.62,121.76 346.32,121.22 348.03,120.55 349.73,119.98 351.43,119.70 353.14,119.51 354.84,119.59 356.55,119.68 358.25,119.56 359.95,118.67 361.66,118.38 363.36,117.49 365.06,116.80 366.77,115.61 368.47,114.53 370.17,113.67 371.88,111.57 373.58,110.06 375.28,108.57 376.99,107.26 378.69,106.14 380.39,105.20 382.10,104.40 383.80,104.10 385.50,103.85 387.21,103.64 388.91,103.49 390.61,103.47 392.32,103.47 394.02,103.44 395.72,103.60 397.43,103.67 399.13,103.64 400.83,103.64 402.54,103.64 404.24,103.61 405.94,102.93 407.65,102.25 409.35,101.83 411.05,101.41 412.76,100.70 414.46,99.94 416.16,100.04 417.87,99.76 419.57,99.40 421.27,98.45 422.98,97.13 424.68,96.33 426.38,95.69 428.09,95.00 429.79,94.38 431.49,93.79 433.20,92.83 434.90,92.27 436.61,91.86 438.31,91.52 440.01,91.29 441.72,90.94 443.42,90.74 445.12,90.65 446.83,90.07 448.53,88.58 450.23,87.62 451.94,86.93 453.64,86.37 455.34,85.98 457.05,85.99 458.75,85.51 460.45,85.66 462.16,85.57 463.86,85.41 465.56,85.21 467.27,85.22 468.97,85.04 470.67,84.85 472.38,84.62 474.08,84.63 475.78,84.27 477.49,84.19 479.19,84.44 480.89,84.28 482.60,84.33 484.30,84.44 486.00,84.54 487.71,84.52 489.41,84.47 491.11,84.58 492.82,84.55 494.52,84.10 496.22,83.75 497.93,83.23 499.63,83.36 501.33,83.23 503.04,83.01 504.74,83.11 506.44,83.01 508.15,84.07 509.85,84.69 511.56,85.42 513.26,86.16 514.96,86.84 516.67,87.42 518.37,87.87 520.07,87.88 521.78,88.15 523.48,88.38 525.18,88.56 526.89,88.63 528.59,88.87 530.29,89.08 532.00,89.09 533.70,89.12 535.40,89.06 537.11,89.16 538.81,89.05 540.51,88.88 542.22,89.11 543.92,89.80 545.62,90.10 547.33,89.86 549.03,89.09 550.73,88.45 552.44,87.24 554.14,86.84 555.84,86.20 557.55,86.08 559.25,86.13 560.95,86.46 562.66,86.77 564.36,86.71 566.06,86.86 567.77,87.27 569.47,87.46 571.17,87.47 572.88,87.19 574.58,86.92 576.28,86.52 577.99,86.24 579.69,85.91 581.39,85.59 583.10,85.37 584.80,85.35 586.51,85.21 588.21,85.12 589.91,84.86 591.62,84.56 593.32,84.87 595.02,84.83 596.73,84.78 598.43,84.50 600.13,84.29 601.84,84.05 603.54,83.73 605.24,83.43 606.95,83.36 608.65,83.38 610.35,83.01 612.06,82.80 613.76,82.71 615.46,82.31 617.17,82.22 618.87,82.41 620.57,82.43 622.28,82.53 623.98,82.84 625.68,82.98 627.39,82.33 629.09,82.78 630.79,83.63 632.50,84.68 634.20,85.33 635.90,85.92 637.61,86.64 639.31,87.79 641.01,88.27 642.72,88.59 644.42,88.69 646.12,88.75 647.83,88.66 649.53,88.31 651.23,87.89 652.94,87.60 654.64,87.36 656.34,87.22 658.05,86.84 659.75,86.57 661.45,86.58 663.16,86.61 664.86,86.29 666.57,85.93 668.27,85.55 669.97,85.54 671.68,85.76 673.38,85.88 675.08,86.60 676.79,87.03 678.49,86.78 680.19,86.31 681.90,85.70 683.60,85.70 685.30,86.68 687.01,87.76 688.71,88.77 690.41,89.06 692.12,89.71 693.82,90.13 695.52,90.61 697.23,90.68 698.93,90.72 700.63,90.98 702.34,91.06 704.04,90.81 705.74,90.83 707.45,90.71 709.15,91.39 710.85,92.05 712.56,92.77 714.26,93.52 715.96,94.21 717.67,94.84 719.37,95.27 721.07,95.72 722.78,95.76 724.48,95.80 726.18,95.73 727.89,96.18 729.59,95.88 731.29,95.93 733.00,95.80 734.70,95.83 736.40,96.02 738.11,96.28 739.81,96.41 741.52,96.84 743.22,97.02 744.92,97.61 746.63,98.04 748.33,98.22 750.03,98.33 751.74,98.66 753.44,98.37 755.14,97.68 756.85,97.24 758.55,96.39 760.25,95.18 761.96,94.59 763.66,94.67 765.36,93.86 767.07,93.21 768.77,92.68 770.47,92.66 772.18,92.21 773.88,91.97 775.58,91.59 777.29,91.12 778.99,90.74 780.69,90.52 782.40,90.37 784.10,90.39 785.80,90.63 787.51,90.91 789.21,91.07 790.91,91.24 792.62,91.39 794.32,91.95 796.02,92.14 797.73,92.03 799.43,91.90 801.13,92.87 802.84,92.84 804.54,92.83 806.24,93.03 807.95,92.64 809.65,92.64 811.35,92.24 813.06,92.23 814.76,92.74 816.46,93.15 818.17,93.78 819.87,94.18 821.58,94.50 823.28,94.60 824.98,94.56 826.69,94.62 828.39,94.51 830.09,94.49 831.80,94.28 833.50,94.04 835.20,93.97 836.91,93.85 838.61,93.88 840.31,93.94 842.02,93.70 843.72,93.74 845.42,93.20 847.13,92.56 848.83,92.56 850.53,92.37 852.24,92.03 853.94,91.54 855.64,91.43 857.35,90.74 859.05,90.82 860.75,90.63 862.46,90.38 864.16,89.80 865.86,89.57 867.57,89.49 869.27,89.59 870.97,89.65 872.68,89.54 874.38,89.57 876.08,89.82 877.79,90.02 879.49,90.48 881.19,90.29 882.90,89.98 884.60,90.18 886.30,90.37 888.01,90.65 889.71,91.55 891.41,92.48 893.12,93.32 894.82,94.47 896.53,96.07 898.23,97.11 899.93,98.13 901.64,98.88 903.34,99.17 905.04,99.27 906.75,99.13 908.45,99.21 910.15,99.32 911.86,99.34 913.56,99.57 915.26,99.91 916.97,100.09 918.67,100.40 920.37,100.62 922.08,100.44 923.78,100.14 925.48,99.61 927.19,98.80 928.89,98.21 930.59,98.14 932.30,98.34 934.00,97.91" fill="none" stroke="#777777" stroke-width="1.5" />
<polyline points="84.00,60.45 85.70,60.45 87.41,60.45 89.11,60.45 90.81,60.45 92.52,60.45 94.22,60.45 95.92,60.45 97.63,60.45 99.33,60.45 101.03,60.45 102.74,60.45 104.44,60.45 106.14,60.45 107.85,60.45 109.55,60.45 111.25,60.45 112.96,60.45 114.66,60.45 116.36,60.45 118.07,60.45 119.77,60.45 121.47,60.45 123.18,60.45 124.88,60.45 126.59,60.45 128.29,60.45 129.99,60.45 131.70,60.45 133.40,60.45 135.10,60.45 136.81,60.45 138.51,60.45 140.21,60.45 141.92,60.45 143.62,60.45 145.32,60.45 147.03,60.45 148.73,60.45 150.43,60.45 152.14,60.45 153.84,60.45 155.54,60.45 157.25,60.45 158.95,60.45 160.65,60.45 162.36,60.45 164.06,60.45 165.76,60.45 167.47,60.45 169.17,60.45 170.87,60.45 172.58,60.45 174.28,60.45 175.98,60.45 177.69,60.45 179.39,60.45 181.09,60.45 182.80,60.45 184.50,60.45 186.20,60.45 187.91,60.45 189.61,60.45 191.31,60.45 193.02,60.45 194.72,60.45 196.42,60.45 198.13,60.45 199.83,60.45 201.54,60.45 203.24,60.45 204.94,60.45 206.65,60.45 208.35,60.45 210.05,60.45 211.76,60.45 213.46,60.45 215.16,60.45 216.87,60.45 218.57,60.45 220.27,60.45 221.98,60.45 223.68,60.45 225.38,60.45 227.09,60.45 228.79,60.45 230.49,60.45 232.20,60.45 233.90,60.45 235.60,60.45 237.31,60.45 239.01,60.45 240.71,60.45 242.42,60.45 244.12,60.45 245.82,60.45 247.53,60.45 249.23,60.45 250.93,60.45 252.64,60.45 254.34,60.45 256.04,60.45 257.75,60.45 259.45,60.45 261.15,60.45 262.86,60.45 264.56,60.45 266.26,60.45 267.97,60.45 269.67,60.45 271.37,60.45 273.08,60.45 274.78,60.45 276.48,60.45 278.19,60.45 279.89,60.45 281.60,60.45 283.30,60.45 285.00,60.45 286.71,60.45 288.41,60.45 290.11,60.45 291.82,60.45 293.52,60.45 295.22,60.45 296.93,60.45 298.63,60.45 300.33,60.45 302.04,60.45 303.74,60.45 305.44,60.45 307.15,60.45 308.85,60.45 310.55,60.45 312.26,60.45 313.96,60.45 315.66,60.45 317.37,60.45 319.07,60.45 320.77,60.45 322.48,60.45 324.18,60.45 325.88,60.45 327.59,60.45 329.29,60.45 330.99,60.45 332.70,60.45 334.40,60.45 336.10,60.45 337.81,60.45 339.51,60.45 341.21,60.45 342.92,60.45 344.62,60.45 346.32,60.45 348.03,60.45 349.73,60.45 351.43,60.45 353.14,60.45 354.84,60.45 356.55,60.45 358.25,60.45 359.95,60.45 361.66,60.45 363.36,60.45 365.06,60.45 366.77,60.45 368.47,60.45 370.17,60.45 371.88,60.45 373.58,60.45 375.28,60.45 376.99,60.45 378.69,60.45 380.39,60.45 382.10,60.45 383.80,60.45 385.50,60.45 387.21,60.45 388.91,60.45 390.61,60.45 392.32,60.45 394.02,60.45 395.72,60.45 397.43,60.45 399.13,60.45 400.83,60.45 402.54,60.45 404.24,60.45 405.94,60.45 407.65,60.45 409.35,60.45 411.05,60.45 412.76,60.45 414.46,60.45 416.16,60.45 417.87,60.45 419.57,60.45 421.27,60.45 422.98,60.45 424.68,60.45 426.38,60.45 428.09,60.45 429.79,60.45 431.49,60.45 433.20,60.45 434.90,60.45 436.61,60.45 438.31,60.45 440.01,60.45 441.72,60.45 443.42,60.45 445.12,60.45 446.83,60.45 448.53,60.45 450.23,60.45 451.94,60.45 453.64,60.45 455.34,60.45 457.05,60.45 458.75,60.45 460.45,60.45 462.16,60.45 463.86,60.45 465.56,60.45 467.27,60.45 468.97,60.45 470.67,60.45 472.38,60.45 474.08,60.45 475.78,60.45 477.49,60.45 479.19,60.45 480.89,60.45 482.60,60.45 484.30,60.45 486.00,60.45 487.71,60.45 489.41,60.45 491.11,60.45 492.82,60.45 494.52,60.45 496.22,60.45 497.93,60.45 499.63,60.45 501.33,60.45 503.04,60.45 504.74,60.45 506.44,60.45 508.15,60.45 509.85,60.45 511.56,60.45 513.26,60.45 514.96,60.45 516.67,60.45 518.37,60.45 520.07,60.45 521.78,60.45 523.48,60.45 525.18,60.45 526.89,60.45 528.59,60.45 530.29,60.45 532.00,60.45 533.70,60.45 535.40,60.45 537.11,60.45 538.81,60.45 540.51,60.45 542.22,60.45 543.92,60.45 545.62,60.45 547.33,60.45 549.03,60.45 550.73,60.45 552.44,60.45 554.14,60.45 555.84,60.45 557.55,60.45 559.25,60.45 560.95,60.45 562.66,60.45 564.36,60.45 566.06,60.45 567.77,60.45 569.47,60.45 571.17,60.45 572.88,60.45 574.58,60.45 576.28,60.45 577.99,60.45 579.69,60.45 581.39,60.45 583.10,60.45 584.80,60.45 586.51,60.45 588.21,60.45 589.91,60.45 591.62,60.45 593.32,60.45 595.02,60.45 596.73,60.45 598.43,60.45 600.13,60.45 601.84,60.45 603.54,60.45 605.24,60.45 606.95,60.45 608.65,60.45 610.35,60.45 612.06,60.45 613.76,60.45 615.46,60.45 617.17,60.45 618.87,60.45 620.57,60.45 622.28,60.45 623.98,60.45 625.68,60.45 627.39,60.45 629.09,60.45 630.79,60.45 632.50,60.45 634.20,60.45 635.90,60.45 637.61,60.45 639.31,60.45 641.01,60.45 642.72,60.45 644.42,60.45 646.12,60.45 647.83,60.45 649.53,60.45 651.23,60.45 652.94,60.45 654.64,60.45 656.34,60.45 658.05,60.45 659.75,60.45 661.45,60.45 663.16,60.45 664.86,60.45 666.57,60.45 668.27,60.45 669.97,60.45 671.68,60.45 673.38,60.45 675.08,60.45 676.79,60.45 678.49,60.45 680.19,60.45 681.90,60.45 683.60,60.45 685.30,60.45 687.01,60.45 688.71,60.45 690.41,60.45 692.12,60.45 693.82,60.45 695.52,60.45 697.23,60.45 698.93,60.45 700.63,60.45 702.34,60.45 704.04,60.45 705.74,60.45 707.45,60.45 709.15,60.45 710.85,60.45 712.56,60.45 714.26,60.45 715.96,60.45 717.67,60.45 719.37,60.45 721.07,60.45 722.78,60.45 724.48,60.45 726.18,60.45 727.89,60.45 729.59,60.45 731.29,60.45 733.00,60.45 734.70,60.45 736.40,60.45 738.11,60.45 739.81,60.45 741.52,60.45 743.22,60.45 744.92,60.45 746.63,60.45 748.33,60.45 750.03,60.45 751.74,60.45 753.44,60.45 755.14,60.45 756.85,60.45 758.55,60.45 760.25,60.45 761.96,60.45 763.66,60.45 765.36,60.45 767.07,60.45 768.77,60.45 770.47,60.45 772.18,60.45 773.88,60.45 775.58,60.45 777.29,60.45 778.99,60.45 780.69,60.45 782.40,60.45 784.10,60.45 785.80,60.45 787.51,60.45 789.21,60.45 790.91,60.45 792.62,60.45 794.32,60.45 796.02,60.45 797.73,60.45 799.43,60.45 801.13,60.45 802.84,60.45 804.54,60.45 806.24,60.45 807.95,60.45 809.65,60.45 811.35,60.45 813.06,60.45 814.76,60.45 816.46,60.45 818.17,60.45 819.87,60.45 821.58,60.45 823.28,60.45 824.98,60.45 826.69,60.45 828.39,60.45 830.09,60.45 831.80,60.45 833.50,60.45 835.20,60.45 836.91,60.45 838.61,60.45 840.31,60.45 842.02,60.45 843.72,60.45 845.42,60.45 847.13,60.45 848.83,60.45 850.53,60.45 852.24,60.45 853.94,60.45 855.64,60.45 857.35,60.45 859.05,60.45 860.75,60.45 862.46,60.45 864.16,60.45 865.86,60.45 867.57,60.45 869.27,60.45 870.97,60.45 872.68,60.45 874.38,60.45 876.08,60.45 877.79,60.45 879.49,60.45 881.19,60.45 882.90,60.45 884.60,60.45 886.30,60.45 888.01,60.45 889.71,60.45 891.41,60.45 893.12,60.45 894.82,60.45 896.53,60.45 898.23,60.45 899.93,60.45 901.64,60.45 903.34,60.45 905.04,60.45 906.75,60.45 908.45,60.45 910.15,60.45 911.86,60.45 913.56,60.45 915.26,60.45 916.97,60.45 918.67,60.45 920.37,60.45 922.08,60.45 923.78,60.45 925.48,60.45 927.19,60.45 928.89,60.45 930.59,60.45 932.30,60.45 934.00,60.45" fill="none" stroke="#111111" stroke-width="1.5" />
<g class="legend">
<line x1="744" y1="62" x2="766" y2="62" stroke="#0066cc" stroke-width="2" />
<text x="772" y="66" font-size="11" font-family="Arial, sans-serif">beta_hat_0</text>
<line x1="744" y1="80" x2="766" y2="80" stroke="#111111" stroke-width="2" />
<text x="772" y="84" font-size="11" font-family="Arial, sans-serif">beta_true_0</text>
<line x1="744" y1="98" x2="766" y2="98" stroke="#cc5500" stroke-width="2" />
<text x="772" y="102" font-size="11" font-family="Arial, sans-serif">beta_hat_1</text>
<line x1="744" y1="116" x2="766" y2="116" stroke="#111111" stroke-width="2" />
<text x="772" y="120" font-size="11" font-family="Arial, sans-serif">beta_true_1</text>
<line x1="744" y1="134" x2="766" y2="134" stroke="#228833" stroke-width="2" />
<text x="772" y="138" font-size="11" font-family="Arial, sans-serif">beta_hat_2</text>
<line x1="744" y1="152" x2="766" y2="152" stroke="#111111" stroke-width="2" />
<text x="772" y="156" font-size="11" font-family="Arial, sans-serif">beta_true_2</text>
<line x1="744" y1="170" x2="766" y2="170" stroke="#777777" stroke-width="2" />
<text x="772" y="174" font-size="11" font-family="Arial, sans-serif">beta_hat_4</text>
<line x1="744" y1="188" x2="766" y2="188" stroke="#111111" stroke-width="2" />
<text x="772" y="192" font-size="11" font-family="Arial, sans-serif">beta_true_4</text>
</g>
</svg>