<svg xmlns="http://www.w3.org/2000/svg" width="960" height="430" viewBox="0 0 960 430">
<text x="84" y="24" font-size="16" font-family="Arial, sans-serif">vehicle_event_nonstationary time-domain acceleration</text>
<rect x="84" y="46" width="850" height="318" fill="white" stroke="#777" />
<line x1="84" y1="364" x2="934" y2="364" stroke="#333" stroke-width="1" />
<line x1="84" y1="46" x2="84" y2="364" stroke="#333" stroke-width="1" />
<line x1="84.00" y1="46" x2="84.00" y2="364" stroke="#e6e6e6" stroke-width="1" />
<line x1="84.00" y1="364" x2="84.00" y2="369" stroke="#333" stroke-width="1" />
<text x="84.00" y="386" text-anchor="middle" font-size="11" font-family="Arial, sans-serif" fill="#333">0.000</text>
<line x1="254.00" y1="46" x2="254.00" y2="364" stroke="#e6e6e6" stroke-width="1" />
<line x1="254.00" y1="364" x2="254.00" y2="369" stroke="#333" stroke-width="1" />
<text x="254.00" y="386" text-anchor="middle" font-size="11" font-family="Arial, sans-serif" fill="#333">0.998</text>
<line x1="424.00" y1="46" x2="424.00" y2="364" stroke="#e6e6e6" stroke-width="1" />
<line x1="424.00" y1="364" x2="424.00" y2="369" stroke="#333" stroke-width="1" />
<text x="424.00" y="386" text-anchor="middle" font-size="11" font-family="Arial, sans-serif" fill="#333">2.00</text>
<line x1="594.00" y1="46" x2="594.00" y2="364" stroke="#e6e6e6" stroke-width="1" />
<line x1="594.00" y1="364" x2="594.00" y2="369" stroke="#333" stroke-width="1" />
<text x="594.00" y="386" text-anchor="middle" font-size="11" font-family="Arial, sans-serif" fill="#333">2.99</text>
<line x1="764.00" y1="46" x2="764.00" y2="364" stroke="#e6e6e6" stroke-width="1" />
<line x1="764.00" y1="364" x2="764.00" y2="369" stroke="#333" stroke-width="1" />
<text x="764.00" y="386" text-anchor="middle" font-size="11" font-family="Arial, sans-serif" fill="#333">3.99</text>
<line x1="934.00" y1="46" x2="934.00" y2="364" stroke="#e6e6e6" stroke-width="1" />
<line x1="934.00" y1="364" x2="934.00" y2="369" stroke="#333" stroke-width="1" />
<text x="934.00" y="386" text-anchor="middle" font-size="11" font-family="Arial, sans-serif" fill="#333">4.99</text>
<line x1="84" y1="364.00" x2="934" y2="364.00" stroke="#e6e6e6" stroke-width="1" />
<line x1="79" y1="364.00" x2="84" y2="364.00" stroke="#333" stroke-width="1" />
<text x="75" y="368.00" text-anchor="end" font-size="11" font-family="Arial, sans-serif" fill="#333">-2.02</text>
<line x1="84" y1="300.40" x2="934" y2="300.40" stroke="#e6e6e6" stroke-width="1" />
<line x1="79" y1="300.40" x2="84" y2="300.40" stroke="#333" stroke-width="1" />
<text x="75" y="304.40" text-anchor="end" font-size="11" font-family="Arial, sans-serif" fill="#333">-1.13</text>
<line x1="84" y1="236.80" x2="934" y2="236.80" stroke="#e6e6e6" stroke-width="1" />
<line x1="79" y1="236.80" x2="84" y2="236.80" stroke="#333" stroke-width="1" />
<text x="75" y="240.80" text-anchor="end" font-size="11" font-family="Arial, sans-serif" fill="#333">-0.251</text>
<line x1="84" y1="173.20" x2="934" y2="173.20" stroke="#e6e6e6" stroke-width="1" />
<line x1="79" y1="173.20" x2="84" y2="173.20" stroke="#333" stroke-width="1" />
<text x="75" y="177.20" text-anchor="end" font-size="11" font-family="Arial, sans-serif" fill="#333">0.633</text>
<line x1="84" y1="109.60" x2="934" y2="109.60" stroke="#e6e6e6" stroke-width="1" />
<line x1="79" y1="109.60" x2="84" y2="109.60" stroke="#333" stroke-width="1" />
<text x="75" y="113.60" text-anchor="end" font-size="11" font-family="Arial, sans-serif" fill="#333">1.52</text>
<line x1="84" y1="46.00" x2="934" y2="46.00" stroke="#e6e6e6" stroke-width="1" />
<line x1="79" y1="46.00" x2="84" y2="46.00" stroke="#333" stroke-width="1" />
<text x="75" y="50.00" text-anchor="end" font-size="11" font-family="Arial, sans-serif" fill="#333">2.40</text>
<text x="509.00" y="412" text-anchor="middle" font-size="13" font-family="Arial, sans-serif">Time (s)</text>
<text transform="translate(22 205.00) rotate(-90)" text-anchor="middle" font-size="13" font-family="Arial, sans-serif">Acceleration (m/s^2)</text>
<polyline points="84.00,218.75 85.70,218.75 87.41,218.75 89.11,218.75 90.81,218.75 92.52,218.75 94.22,218.75 95.92,218.75 97.63,218.75 99.33,218.75 101.03,218.75 102.74,218.75 104.44,218.75 106.14,218.75 107.85,218.75 109.55,218.75 111.25,218.75 112.96,218.75 114.66,218.75 116.36,218.75 118.07,218.75 119.77,217.78 121.47,218.59 123.18,217.71 124.88,216.28 126.59,217.57 128.29,221.57 129.99,224.19 131.70,222.03 133.40,216.68 135.10,212.67 136.81,212.63 138.51,216.11 140.21,221.59 141.92,226.42 143.62,228.20 145.32,226.07 147.03,221.12 148.73,215.85 150.43,212.82 152.14,213.31 153.84,216.67 155.54,220.72 157.25,222.94 158.95,221.87 160.65,217.92 162.36,213.15 164.06,210.21 165.76,210.86 167.47,215.04 169.17,220.85 170.87,225.55 172.58,226.97 174.28,224.64 175.98,220.00 177.69,215.64 179.39,213.87 181.09,215.47 182.80,219.35 184.50,223.09 186.20,224.33 187.91,222.04 189.61,217.12 191.31,211.97 193.02,209.22 194.72,210.31 196.42,214.78 198.13,220.45 199.83,224.60 201.54,225.36 203.24,222.73 204.94,218.47 206.65,215.19 208.35,214.84 210.05,217.73 211.76,222.28 213.46,225.91 215.16,226.44 216.87,223.25 218.57,217.70 220.27,212.40 221.98,209.88 223.68,211.26 225.38,215.68 227.09,220.75 228.79,223.87 230.49,223.60 232.20,220.37 233.90,216.29 235.60,213.91 237.31,214.88 239.01,218.99 240.71,224.24 242.42,227.91 244.12,227.98 245.82,224.25 247.53,218.41 249.23,213.26 250.93,211.15 252.64,212.87 254.34,217.16 256.04,221.49 257.75,223.37 259.45,221.73 261.15,217.50 262.86,213.14 264.56,211.28 266.26,213.32 267.97,218.60 269.67,224.72 271.37,228.72 273.08,228.63 274.78,224.53 276.48,218.50 278.19,213.58 279.89,212.13 281.60,214.65 283.30,219.44 285.00,223.52 286.71,224.25 288.41,220.78 290.11,214.60 291.82,208.87 293.52,206.74 295.22,209.73 296.93,216.78 298.63,224.70 300.33,229.73 302.04,229.53 303.74,224.40 305.44,217.25 307.15,212.07 308.85,211.83 310.55,216.80 312.26,224.19 313.96,229.58 315.66,229.21 317.37,222.18 319.07,211.17 320.77,201.34 322.48,197.72 324.18,202.48 325.88,213.64 327.59,225.78 329.29,232.82 330.99,231.26 332.70,222.26 334.40,211.28 336.10,205.25 337.81,208.78 339.51,221.24 341.21,236.64 342.92,246.45 344.62,244.14 346.32,229.07 348.03,207.37 349.73,189.23 351.43,183.69 353.14,193.63 354.84,213.82 356.55,233.34 358.25,241.36 359.95,233.20 361.66,213.52 363.36,194.27 365.06,188.44 366.77,202.61 368.47,232.53 370.17,264.39 371.88,281.67 373.58,274.01 375.28,243.40 376.99,203.97 378.69,175.03 380.39,170.82 382.10,192.44 383.80,226.67 385.50,252.77 387.21,253.91 388.91,227.10 390.61,185.90 392.32,153.86 394.02,151.85 395.72,186.03 397.43,243.16 399.13,296.48 400.83,319.46 402.54,300.14 404.24,248.25 405.94,190.64 407.65,157.15 409.35,164.25 411.05,205.57 412.76,254.80 414.46,279.96 416.16,261.48 417.87,204.04 419.57,135.43 421.27,92.30 422.98,100.36 424.68,159.66 426.38,243.49 428.09,311.74 429.79,332.09 431.49,297.34 433.20,229.47 434.90,167.74 436.61,147.13 438.31,178.86 440.01,243.85 441.72,302.81 443.42,317.99 445.12,274.48 446.83,189.40 448.53,103.65 450.23,60.45 451.94,82.16 453.64,158.12 455.34,250.22 457.05,313.25 458.75,318.94 460.45,270.82 462.16,201.54 463.86,154.42 465.56,159.29 467.27,215.87 468.97,293.84 470.67,349.46 472.38,349.55 474.08,289.78 475.78,197.28 477.49,116.27 479.19,84.66 480.89,114.29 482.60,185.53 484.30,258.67 486.00,295.76 487.71,280.78 489.41,227.32 491.11,170.11 492.82,145.13 494.52,169.75 496.22,233.36 497.93,303.49 499.63,343.56 501.33,332.53 503.04,275.69 504.74,201.18 506.44,144.62 508.15,130.30 509.85,159.31 511.56,210.39 513.26,252.61 514.96,262.46 516.67,236.09 518.37,190.36 520.07,152.69 521.78,145.65 523.48,174.89 525.18,226.60 526.89,275.44 528.59,298.21 530.29,285.79 532.00,246.97 533.70,202.88 535.40,175.23 537.11,175.14 538.81,198.20 540.51,228.14 542.22,246.40 543.92,242.28 545.62,218.21 547.33,187.70 549.03,167.50 550.73,168.54 552.44,190.48 554.14,222.44 555.84,249.21 557.55,259.26 559.25,250.26 560.95,229.52 562.66,209.31 564.36,200.16 566.06,205.55 567.77,220.71 569.47,235.90 571.17,241.93 572.88,235.09 574.58,218.75 576.28,201.21 577.99,191.11 579.69,192.96 581.39,205.16 583.10,221.18 584.80,233.28 586.51,236.44 588.21,230.64 589.91,220.42 591.62,212.09 593.32,210.32 595.02,215.82 596.73,225.25 598.43,233.22 600.13,235.26 601.84,230.10 603.54,220.18 605.24,210.22 606.95,204.73 608.65,205.80 610.35,212.16 612.06,220.09 613.76,225.45 615.46,225.82 617.17,221.61 618.87,215.67 620.57,211.65 622.28,212.04 623.98,216.87 625.68,223.79 627.39,229.30 629.09,230.63 630.79,227.14 632.50,220.55 634.20,214.07 635.90,210.66 637.61,211.58 639.31,215.81 641.01,220.67 642.72,223.33 644.42,222.27 646.12,218.09 647.83,213.18 649.53,210.34 651.23,211.37 652.94,216.04 654.64,222.20 656.34,226.94 658.05,228.05 659.75,225.19 661.45,219.98 663.16,215.17 664.86,213.14 666.57,214.69 668.27,218.61 669.97,222.42 671.68,223.70 673.38,221.45 675.08,216.63 676.79,211.66 678.49,209.16 680.19,210.56 681.90,215.30 683.60,221.15 685.30,225.32 687.01,225.99 688.71,223.16 690.41,218.66 692.12,215.11 693.82,214.52 695.52,217.17 697.23,221.51 698.93,224.96 700.63,225.37 702.34,222.16 704.04,216.69 705.74,211.59 707.45,209.35 709.15,211.03 710.85,215.71 712.56,221.01 714.26,224.29 715.96,224.12 717.67,220.96 719.37,216.89 721.07,214.46 722.78,215.28 724.48,219.13 726.18,224.03 727.89,227.34 729.59,227.14 731.29,223.29 733.00,217.52 734.70,212.57 736.40,210.73 738.11,212.65 739.81,217.07 741.52,221.48 743.22,223.48 744.92,222.10 746.63,218.30 748.33,214.41 750.03,212.86 751.74,214.85 753.44,219.66 755.14,225.00 756.85,228.17 758.55,227.56 760.25,223.43 761.96,217.83 763.66,213.48 765.36,212.35 767.07,214.68 768.77,218.83 770.47,222.23 772.18,222.81 773.88,220.10 775.58,215.53 777.29,211.63 778.99,210.70 780.69,213.53 782.40,218.95 784.10,224.41 785.80,227.31 787.51,226.39 789.21,222.30 790.91,217.30 792.62,214.01 794.32,214.02 796.02,217.05 797.73,221.12 799.43,223.68 801.13,222.99 802.84,219.09 804.54,213.84 806.24,209.93 807.95,209.44 809.65,212.75 811.35,218.33 813.06,223.48 814.76,225.83 816.46,224.49 818.17,220.54 819.87,216.38 821.58,214.43 823.28,215.83 824.98,219.77 826.69,223.98 828.39,225.95 830.09,224.29 831.80,219.53 833.50,213.88 835.20,210.07 836.91,209.92 838.61,213.41 840.31,218.69 842.02,223.05 843.72,224.42 845.42,222.38 847.13,218.40 848.83,215.01 850.53,214.38 852.24,217.12 853.94,221.96 855.64,226.37 857.35,227.93 859.05,225.62 860.75,220.42 862.46,214.77 864.16,211.33 865.86,211.58 867.57,215.08 869.27,219.73 870.97,222.92 872.68,222.94 874.38,219.91 876.08,215.67 877.79,212.82 879.49,213.24 881.19,217.06 882.90,222.57 884.60,227.07 886.30,228.30 888.01,225.65 889.71,220.44 891.41,215.27 893.12,212.61 894.82,213.52 896.53,217.13 898.23,221.12 899.93,223.03 901.64,221.61 903.34,217.49 905.04,212.88 906.75,210.37 908.45,211.54 910.15,216.06 911.86,221.87 913.56,226.21 915.26,227.08 916.97,224.27 918.67,219.43 920.37,215.20 922.08,213.75 923.78,215.67 925.48,219.63 927.19,223.15 928.89,223.98 930.59,221.30 932.30,216.26 934.00,211.35" fill="none" stroke="#228833" stroke-width="1.5" />
<g class="legend">
<line x1="744" y1="62" x2="766" y2="62" stroke="#228833" stroke-width="2" />
<text x="772" y="66" font-size="11" font-family="Arial, sans-serif">acceleration</text>
</g>
</svg>